<?xml version="1.0" encoding="UTF-8" standalone="no"?>
<!DOCTYPE svg PUBLIC "-//W3C//DTD SVG 1.1//EN" "http://www.w3.org/Graphics/SVG/1.1/DTD/svg11.dtd">
<!-- Created with Vectornator (http://vectornator.io/) -->
<svg height="100%" stroke-miterlimit="10" style="fill-rule:nonzero;clip-rule:evenodd;stroke-linecap:round;stroke-linejoin:round;" version="1.1" viewBox="0 0 1024 1024" width="100%" xml:space="preserve" xmlns="http://www.w3.org/2000/svg" xmlns:xlink="http://www.w3.org/1999/xlink">
<defs/>
<g id="person.fill" visibility="hidden">
<path d="M512.977 513.105C614.051 513.105 691.199 426.679 691.199 314.374C691.199 208.906 612.098 120.039 512.977 120.039C413.855 120.039 333.777 208.906 334.754 314.374C334.754 426.679 412.391 513.105 512.977 513.105ZM201.453 927.167L823.035 927.167C867.957 927.167 893.348 913.984 893.348 874.433C893.348 757.246 746.863 595.624 512 595.624C277.137 595.624 130.652 757.246 130.652 874.433C130.652 913.984 156.043 927.167 201.453 927.167Z" fill="#000000" opacity="1" stroke="none"/>
</g>
<g id="equal">
<g opacity="1">
<path d="M162.697 378.027L873.113 378.027C876.145 378.027 878.929 377.254 881.467 375.71C884.005 374.166 886.046 372.125 887.59 369.587C889.134 367.05 889.906 364.063 889.906 360.626C889.906 357.538 889.134 354.725 887.59 352.187C886.046 349.65 884.005 347.609 881.467 346.065C878.929 344.52 876.145 343.748 873.113 343.748L162.697 343.748C159.602 343.748 156.802 344.52 154.296 346.065C151.79 347.609 149.749 349.65 148.173 352.187C146.597 354.725 145.809 357.538 145.809 360.626C145.809 364.063 146.597 367.05 148.173 369.587C149.749 372.125 151.79 374.166 154.296 375.71C156.802 377.254 159.602 378.027 162.697 378.027ZM162.697 729.409L873.113 729.409C876.145 729.409 878.929 728.636 881.467 727.088C884.005 725.541 886.046 723.427 887.59 720.747C889.134 718.067 889.906 715.183 889.906 712.095C889.906 708.943 889.134 706.114 887.59 703.608C886.046 701.102 884.005 699.075 881.467 697.528C878.929 695.981 876.145 695.207 873.113 695.207L162.697 695.207C159.602 695.207 156.802 695.981 154.296 697.528C151.79 699.075 149.749 701.102 148.173 703.608C146.597 706.114 145.809 708.943 145.809 712.095C145.809 715.183 146.597 718.067 148.173 720.747C149.749 723.427 151.79 725.541 154.296 727.088C156.802 728.636 159.602 729.409 162.697 729.409Z" fill="none" opacity="1" stroke="#000000" stroke-linecap="butt" stroke-linejoin="miter" stroke-width="62.2115"/>
</g>
</g>
<g id="person" visibility="hidden">
<path d="M512.977 511.612C616.98 511.612 696.57 422.745 696.57 307.511C696.57 197.647 614.051 107.804 512.977 107.804C411.902 107.804 328.406 198.624 329.383 307.511C330.848 422.745 409.461 511.612 512.977 511.612ZM512.977 484.757C424.598 484.757 356.238 408.585 356.238 307.511C355.262 212.784 426.551 134.171 512.977 134.171C599.402 134.171 670.203 212.296 670.203 307.511C670.203 408.097 601.355 484.757 512.977 484.757ZM201.453 925.675L822.547 925.675C874.305 925.675 898.719 907.608 898.719 867.569C898.719 748.917 749.793 583.878 512 583.878C274.207 583.878 125.281 748.917 125.281 867.569C125.281 907.608 149.695 925.675 201.453 925.675ZM199.988 898.819C163.367 898.819 152.137 890.519 152.137 867.081C152.137 759.171 286.414 610.245 512 610.245C737.586 610.245 871.863 759.171 871.863 867.081C871.863 890.519 860.633 898.819 824.012 898.819L199.988 898.819Z" fill="#000000" opacity="1" stroke="#000000" stroke-linecap="butt" stroke-linejoin="miter" stroke-width="50"/>
</g>
</svg>
