<?xml version="1.0" encoding="UTF-8" standalone="no"?>
<!DOCTYPE svg PUBLIC "-//W3C//DTD SVG 1.1//EN" "http://www.w3.org/Graphics/SVG/1.1/DTD/svg11.dtd">
<!-- Created with Vectornator (http://vectornator.io/) -->
<svg height="100%" stroke-miterlimit="10" style="fill-rule:nonzero;clip-rule:evenodd;stroke-linecap:round;stroke-linejoin:round;" version="1.1" viewBox="0 0 1024 1024" width="100%" xml:space="preserve" xmlns="http://www.w3.org/2000/svg" xmlns:vectornator="http://vectornator.io" xmlns:xlink="http://www.w3.org/1999/xlink">
<defs/>
<g id="house" vectornator:layerName="house">
<g opacity="1">
<path d="M404.501 892.983L619.623 892.983L619.623 591.993C619.623 585.171 617.62 579.756 613.612 575.749C609.604 571.741 604.189 569.737 597.368 569.737L426.815 569.737C419.998 569.737 414.574 571.741 410.545 575.749C406.515 579.756 404.501 585.171 404.501 591.993L404.501 892.983ZM249.709 904.98L776.075 904.98C798.757 904.98 816 899.099 827.803 887.338C839.607 875.576 845.508 858.513 845.508 836.148L845.508 404.426L822.292 385.992L822.292 831.325C822.292 848.911 818.232 861.774 810.112 869.914C801.992 878.053 789.161 882.123 771.618 882.123L254.519 882.123C236.737 882.123 223.786 878.053 215.666 869.914C207.546 861.774 203.486 848.911 203.486 831.325L203.486 387.064L180.629 404.426L180.629 836.148C180.629 858.748 186.471 875.87 198.157 887.514C209.842 899.158 227.027 904.98 249.709 904.98ZM85.7438 469.259C85.7438 472.108 86.7871 474.546 88.8737 476.574C90.9603 478.602 93.8485 479.616 97.5382 479.616C99.5464 479.616 101.124 479.304 102.272 478.682C103.42 478.059 104.754 477.144 106.275 475.937L494.87 149.901C500.481 144.848 506.272 142.133 512.242 141.756C518.212 141.379 524.619 144.094 531.462 149.901L917.791 475.937C919.35 477.144 920.764 478.059 922.032 478.682C923.299 479.304 924.937 479.616 926.945 479.616C930.191 479.616 932.887 478.624 935.035 476.64C937.182 474.655 938.256 472.139 938.256 469.089C938.256 465.077 936.357 461.372 932.558 457.974L546.7 132.84C536.25 123.626 525.2 119.02 513.552 119.02C501.903 119.02 490.575 123.626 479.567 132.84L91.9252 457.974C87.8043 461.372 85.7438 465.134 85.7438 469.259ZM787.046 349.256L845.508 398.675L845.508 219.498C845.508 214.902 844.06 211.216 841.163 208.439C838.266 205.662 834.639 204.273 830.283 204.273L802.329 204.273C797.973 204.273 794.337 205.662 791.42 208.439C788.504 211.216 787.046 214.902 787.046 219.498L787.046 349.256Z" fill="#000000" fill-rule="nonzero" opacity="1" stroke="#000000" stroke-linecap="butt" stroke-linejoin="miter" stroke-width="42.8233"/>
</g>
</g>
</svg>
