<?xml version="1.0" encoding="UTF-8" standalone="no"?>
<!DOCTYPE svg PUBLIC "-//W3C//DTD SVG 1.1//EN" "http://www.w3.org/Graphics/SVG/1.1/DTD/svg11.dtd">
<!-- Created with Vectornator (http://vectornator.io/) -->
<svg height="100%" stroke-miterlimit="10" style="fill-rule:nonzero;clip-rule:evenodd;stroke-linecap:round;stroke-linejoin:round;" version="1.1" viewBox="0 0 1024 1024" width="100%" xml:space="preserve" xmlns="http://www.w3.org/2000/svg" xmlns:vectornator="http://vectornator.io" xmlns:xlink="http://www.w3.org/1999/xlink">
<defs/>
<g id="person.crop.circle" vectornator:layerName="person.crop.circle">
<path d="M517.429 599.412C544.612 599.455 569.03 592.389 590.682 578.215C612.333 564.042 629.46 544.935 642.063 520.894C654.665 496.853 660.966 469.71 660.966 439.463C660.966 411.026 654.6 384.95 641.868 361.234C629.136 337.519 611.881 318.499 590.102 304.174C568.323 289.85 544.099 282.688 517.429 282.688C490.801 282.688 466.587 289.85 444.787 304.174C422.987 318.499 405.656 337.519 392.795 361.234C379.933 384.95 373.524 411.026 373.566 439.463C373.566 469.71 379.933 496.831 392.668 520.827C405.402 544.823 422.583 563.907 444.211 578.081C465.839 592.255 490.245 599.365 517.429 599.412ZM803.146 807.24L803.401 805.417C793.845 786.112 775.96 766.227 749.747 745.763C723.534 725.298 690.672 708.11 651.159 694.198C611.647 680.286 567.07 673.33 517.429 673.33C468.089 673.33 423.663 680.222 384.151 694.007C344.638 707.792 311.775 724.787 285.562 744.992C259.35 765.197 241.336 784.802 231.52 803.805L231.711 807.24C256.053 832.827 283.345 855.182 313.587 874.305C343.829 893.429 376.173 908.256 410.62 918.788C445.068 929.319 480.8 934.585 517.817 934.585C555.132 934.585 590.616 929.449 624.269 919.177C657.922 908.904 689.729 894.282 719.691 875.309C749.652 856.336 777.47 833.646 803.146 807.24ZM517.429 948.36C574.307 948.36 627.771 937.544 677.82 915.911C727.868 894.278 771.992 864.437 810.19 826.388C848.387 788.338 878.227 744.289 899.709 694.24C921.192 644.192 931.933 590.601 931.933 533.468C931.933 476.589 921.181 423.125 899.678 373.077C878.174 323.028 848.387 278.969 810.317 240.898C772.246 202.827 728.122 172.987 677.943 151.378C627.765 129.769 574.239 118.964 517.365 118.964C460.27 118.964 406.698 129.769 356.649 151.378C306.6 172.987 262.541 202.827 224.47 240.898C186.399 278.969 156.559 323.028 134.95 373.077C113.341 423.125 102.536 476.589 102.536 533.468C102.536 590.601 113.353 644.192 134.985 694.24C156.618 744.289 186.458 788.338 224.505 826.388C262.553 864.437 306.6 894.278 356.649 915.911C406.698 937.544 460.291 948.36 517.429 948.36ZM517.429 923.043C463.717 923.043 413.302 912.985 366.184 892.869C319.066 872.754 277.633 844.812 241.886 809.043C206.138 773.274 178.208 731.829 158.094 684.709C137.981 637.589 127.925 587.175 127.925 533.468C127.925 479.756 137.981 429.405 158.094 382.417C178.208 335.429 206.138 294.049 241.886 258.278C277.633 222.507 319.055 194.5 366.152 174.257C413.249 154.014 463.653 143.893 517.365 143.893C571.115 143.893 621.539 154.014 668.638 174.257C715.737 194.5 757.106 222.507 792.746 258.278C828.385 294.049 856.338 335.429 876.604 382.417C896.87 429.405 907.004 479.756 907.004 533.468C907.046 587.175 896.935 637.589 876.671 684.709C856.407 731.829 828.465 773.274 792.845 809.043C757.224 844.812 715.855 872.754 668.737 892.869C621.62 912.985 571.183 923.043 517.429 923.043Z" fill="#000000" fill-rule="nonzero" opacity="1" stroke="#000000" stroke-linecap="butt" stroke-linejoin="miter" stroke-width="40"/>
</g>
</svg>
