<?xml version="1.0" encoding="UTF-8" standalone="no"?>
<!DOCTYPE svg PUBLIC "-//W3C//DTD SVG 1.1//EN" "http://www.w3.org/Graphics/SVG/1.1/DTD/svg11.dtd">
<!-- Created with Vectornator (http://vectornator.io/) -->
<svg height="100%" stroke-miterlimit="10" style="fill-rule:nonzero;clip-rule:evenodd;stroke-linecap:round;stroke-linejoin:round;" version="1.1" viewBox="0 0 1024 1024" width="100%" xml:space="preserve" xmlns="http://www.w3.org/2000/svg" xmlns:vectornator="http://vectornator.io" xmlns:xlink="http://www.w3.org/1999/xlink">
<defs/>
<g id="rectangle.3.group" vectornator:layerName="rectangle.3.group">
<g opacity="1">
<path d="M664.756 734.364L898.524 734.364C912.546 734.364 923.204 730.978 930.499 724.206C937.794 717.433 941.442 706.467 941.442 691.305L941.442 315.25C941.442 300.085 937.794 289.117 930.499 282.344C923.204 275.572 912.546 272.186 898.524 272.186L664.756 272.186C650.734 272.186 640.076 275.572 632.781 282.344C625.486 289.117 621.839 300.085 621.839 315.25L621.839 691.305C621.839 706.467 625.486 717.433 632.781 724.206C640.076 730.978 650.734 734.364 664.756 734.364ZM665.817 716.289C656.484 716.289 649.842 714.265 645.889 710.217C641.937 706.169 639.961 699.525 639.961 690.286L639.961 316.264C639.961 307.025 641.937 300.39 645.889 296.359C649.842 292.329 656.484 290.313 665.817 290.313L897.364 290.313C906.763 290.313 913.439 292.329 917.391 296.359C921.343 300.39 923.319 307.025 923.319 316.264L923.319 690.286C923.319 699.525 921.343 706.169 917.391 710.217C913.439 714.265 906.763 716.289 897.364 716.289L665.817 716.289ZM125.769 484.058L443.574 484.058C457.596 484.058 468.303 480.665 475.694 473.878C483.084 467.092 486.78 456.211 486.78 441.234L486.78 278.435C486.78 263.494 483.084 252.63 475.694 245.843C468.303 239.057 457.596 235.664 443.574 235.664L125.769 235.664C111.747 235.664 101.039 239.057 93.6469 245.843C86.2544 252.63 82.5582 263.494 82.5582 278.435L82.5582 441.234C82.5582 456.211 86.2544 467.092 93.6469 473.878C101.039 480.665 111.747 484.058 125.769 484.058ZM126.589 465.935C117.416 465.935 110.806 463.959 106.758 460.007C102.71 456.055 100.686 449.379 100.686 439.98L100.686 279.789C100.686 270.327 102.71 263.628 106.758 259.691C110.806 255.755 117.416 253.786 126.589 253.786L442.702 253.786C451.909 253.786 458.537 255.755 462.585 259.691C466.633 263.628 468.657 270.327 468.657 279.789L468.657 439.98C468.657 449.379 466.633 456.055 462.585 460.007C458.537 463.959 451.909 465.935 442.702 465.935L126.589 465.935ZM206.081 788.336L483.843 788.336C497.865 788.336 508.524 784.943 515.821 778.157C523.118 771.37 526.766 760.395 526.766 745.23L526.766 622.805C526.766 607.866 523.118 597.011 515.821 590.239C508.524 583.466 497.865 580.08 483.843 580.08L206.081 580.08C192.094 580.08 181.404 583.466 174.012 590.239C166.619 597.011 162.923 607.866 162.923 622.805L162.923 745.23C162.923 760.395 166.619 771.37 174.012 778.157C181.404 784.943 192.094 788.336 206.081 788.336ZM206.907 770.214C197.765 770.214 191.17 768.19 187.12 764.142C183.07 760.093 181.045 753.45 181.045 744.211L181.045 624.158C181.045 614.731 183.07 608.041 187.12 604.087C191.17 600.132 197.765 598.155 206.907 598.155L482.688 598.155C492.084 598.155 498.759 600.132 502.713 604.087C506.667 608.041 508.644 614.731 508.644 624.158L508.644 744.211C508.644 753.45 506.667 760.093 502.713 764.142C498.759 768.19 492.084 770.214 482.688 770.214L206.907 770.214Z" fill="#000000" fill-rule="nonzero" opacity="1" stroke="#000000" stroke-linecap="butt" stroke-linejoin="miter" stroke-width="53.044"/>
</g>
</g>
</svg>
