<?xml version="1.0" standalone="no"?>
<!DOCTYPE svg PUBLIC "-//W3C//DTD SVG 20010904//EN"
 "http://www.w3.org/TR/2001/REC-SVG-20010904/DTD/svg10.dtd">
<svg version="1.0" xmlns="http://www.w3.org/2000/svg"
 width="1024.000000pt" height="1024.000000pt" viewBox="0 0 1024.000000 1024.000000"
 preserveAspectRatio="xMidYMid meet">
<metadata>
Created by potrace 1.14, written by Peter Selinger 2001-2017
</metadata>
<g transform="translate(0.000000,1024.000000) scale(0.100000,-0.100000)"
fill="#000000" stroke="none">
<path d="M1556 10193 c-3 -4 -59 -8 -124 -9 -64 -2 -117 -4 -117 -4 0 -1 -18
-3 -40 -5 -22 -1 -58 -6 -79 -10 -32 -6 -37 -5 -31 6 7 11 6 12 -6 2 -14 -11
-29 -15 -104 -28 -16 -3 -55 -13 -85 -21 -30 -9 -59 -17 -65 -19 -20 -4 -51
-17 -88 -36 -22 -10 -45 -19 -51 -19 -7 0 -23 -9 -36 -20 -12 -11 -27 -17 -31
-14 -5 3 -9 1 -9 -3 0 -5 -15 -17 -32 -28 -39 -22 -77 -52 -139 -111 -26 -24
-50 -40 -54 -36 -5 4 -5 2 -2 -4 4 -6 -1 -21 -11 -32 -46 -54 -52 -63 -52 -72
0 -6 -3 -10 -7 -10 -5 0 -17 -18 -27 -40 -10 -22 -23 -37 -29 -33 -6 3 -7 1
-3 -5 4 -6 -2 -31 -12 -54 -20 -45 -39 -100 -47 -137 -3 -11 -7 -31 -11 -43
-3 -13 -8 -49 -11 -80 -4 -38 -9 -55 -17 -51 -8 5 -8 3 -1 -8 12 -16 13 -39 2
-56 -5 -7 -4 -13 2 -13 7 0 7 -8 1 -24 -5 -13 -6 -26 -3 -29 10 -10 9 -67 -1
-67 -6 0 -5 -5 2 -12 7 -7 8 -17 1 -30 -7 -12 -6 -18 1 -18 7 0 8 -7 3 -17 -5
-10 -7 -29 -6 -43 6 -60 6 -107 -1 -118 -4 -7 -4 -12 1 -12 10 0 9 -102 -1
-118 -4 -7 -3 -12 2 -12 5 0 8 -12 6 -27 -5 -44 -6 -76 -1 -105 2 -16 0 -28
-5 -28 -5 0 -4 -8 1 -19 6 -10 8 -20 6 -23 -6 -6 -7 -57 -2 -90 2 -16 0 -28
-5 -28 -5 0 -5 -7 0 -17 6 -9 6 -29 2 -45 -5 -15 -5 -28 0 -28 11 0 7 -33 -5
-42 -6 -5 -5 -8 2 -8 9 0 10 -7 3 -24 -5 -13 -6 -26 -3 -29 10 -10 9 -67 -1
-67 -6 0 -5 -5 2 -12 7 -7 8 -17 1 -30 -7 -12 -6 -18 1 -18 7 0 8 -7 3 -17 -5
-10 -7 -29 -6 -43 6 -60 6 -107 -1 -118 -4 -7 -4 -12 1 -12 10 0 9 -102 -1
-118 -4 -7 -3 -12 2 -12 5 0 8 -12 6 -27 -5 -44 -6 -76 -1 -105 2 -16 0 -28
-5 -28 -5 0 -4 -8 1 -19 6 -10 8 -20 6 -23 -6 -6 -7 -57 -2 -90 2 -16 0 -28
-5 -28 -5 0 -5 -7 0 -17 6 -9 6 -29 2 -45 -5 -15 -5 -28 0 -28 11 0 7 -33 -5
-42 -6 -5 -5 -8 2 -8 9 0 10 -7 3 -24 -5 -13 -6 -26 -3 -29 10 -10 9 -67 -1
-67 -6 0 -5 -5 2 -12 7 -7 8 -17 1 -30 -7 -12 -6 -18 1 -18 7 0 8 -7 3 -17 -5
-10 -7 -29 -6 -43 6 -60 6 -107 -1 -118 -4 -7 -4 -12 1 -12 10 0 9 -102 -1
-118 -4 -7 -3 -12 2 -12 5 0 8 -12 6 -27 -5 -44 -6 -76 -1 -105 2 -16 0 -28
-5 -28 -5 0 -4 -8 1 -19 6 -10 8 -20 6 -23 -6 -6 -7 -57 -2 -90 2 -16 0 -28
-5 -28 -5 0 -5 -7 0 -17 6 -9 6 -29 2 -45 -5 -15 -5 -28 0 -28 11 0 7 -33 -5
-42 -6 -5 -5 -8 2 -8 9 0 10 -7 3 -24 -5 -13 -6 -26 -3 -29 10 -10 9 -67 -1
-67 -6 0 -5 -5 2 -12 7 -7 8 -17 1 -30 -7 -12 -6 -18 1 -18 7 0 8 -7 3 -17 -5
-10 -7 -29 -6 -43 6 -60 6 -107 -1 -118 -4 -7 -4 -12 1 -12 10 0 9 -102 -1
-118 -4 -7 -3 -12 2 -12 5 0 8 -12 6 -27 -5 -44 -6 -76 -1 -105 2 -16 0 -28
-5 -28 -5 0 -4 -8 1 -19 6 -10 8 -20 6 -23 -6 -6 -7 -57 -2 -90 2 -16 0 -28
-5 -28 -5 0 -5 -7 0 -17 6 -9 6 -29 2 -45 -5 -15 -5 -28 0 -28 11 0 7 -33 -5
-42 -6 -5 -5 -8 2 -8 9 0 10 -7 3 -24 -5 -13 -6 -26 -3 -29 10 -10 9 -67 -1
-67 -6 0 -5 -5 2 -12 7 -7 8 -17 1 -30 -7 -12 -6 -18 1 -18 7 0 8 -7 3 -17 -5
-10 -7 -29 -6 -43 6 -60 6 -107 -1 -118 -4 -7 -4 -12 1 -12 10 0 9 -102 -1
-118 -4 -7 -3 -12 2 -12 5 0 8 -12 6 -27 -5 -44 -6 -76 -1 -105 2 -16 0 -28
-5 -28 -5 0 -4 -8 1 -19 6 -10 8 -20 6 -23 -6 -6 -7 -57 -2 -90 2 -16 0 -28
-5 -28 -5 0 -5 -7 0 -17 6 -9 6 -29 2 -45 -5 -15 -5 -28 0 -28 11 0 7 -33 -5
-42 -6 -5 -5 -8 2 -8 9 0 10 -7 3 -24 -5 -13 -6 -26 -3 -29 10 -10 9 -67 -1
-67 -6 0 -5 -5 2 -12 7 -7 8 -17 1 -30 -7 -12 -6 -18 1 -18 7 0 8 -7 3 -17 -5
-10 -7 -29 -6 -43 6 -60 6 -107 -1 -118 -4 -7 -4 -12 1 -12 10 0 9 -102 -1
-118 -4 -7 -3 -12 2 -12 5 0 8 -12 6 -28 -5 -43 -6 -75 -1 -104 2 -16 0 -28
-5 -28 -5 0 -4 -8 1 -19 6 -10 8 -20 6 -23 -6 -6 -7 -57 -2 -90 2 -16 0 -28
-5 -28 -5 0 -5 -7 0 -17 6 -9 6 -29 2 -45 -5 -15 -5 -28 0 -28 11 0 7 -33 -5
-42 -6 -5 -5 -8 2 -8 9 0 10 -7 3 -24 -5 -13 -6 -26 -3 -29 10 -10 9 -67 -1
-67 -6 0 -5 -5 2 -12 7 -7 8 -17 1 -30 -7 -12 -6 -18 1 -18 7 0 8 -7 3 -17 -5
-10 -7 -29 -6 -43 6 -60 6 -107 -1 -118 -4 -7 -4 -12 1 -12 10 0 9 -102 -1
-118 -4 -7 -3 -12 2 -12 5 0 8 -12 6 -27 -5 -44 -6 -76 -1 -105 2 -16 0 -28
-5 -28 -5 0 -4 -8 1 -19 6 -10 8 -20 6 -23 -6 -6 -7 -57 -2 -90 2 -16 0 -28
-5 -28 -5 0 -5 -7 0 -17 6 -9 6 -29 2 -45 -5 -15 -5 -28 0 -28 11 0 7 -33 -5
-42 -6 -5 -5 -8 2 -8 9 0 10 -7 3 -24 -5 -13 -6 -26 -3 -29 10 -10 9 -67 -1
-67 -6 0 -5 -5 2 -12 7 -7 8 -17 1 -30 -7 -12 -6 -18 1 -18 7 0 8 -7 3 -17 -5
-10 -7 -29 -6 -43 6 -60 6 -107 -1 -118 -4 -7 -4 -12 1 -12 10 0 9 -102 -1
-118 -4 -7 -3 -12 2 -12 5 0 8 -12 6 -27 -5 -44 -6 -76 -1 -105 2 -16 0 -28
-5 -28 -5 0 -4 -8 1 -19 6 -10 8 -20 6 -23 -6 -6 -7 -57 -2 -90 2 -16 0 -28
-5 -28 -5 0 -6 -5 -3 -10 9 -15 12 -131 3 -136 -4 -3 -4 -12 -1 -21 9 -22 8
-77 -1 -91 -4 -7 -4 -12 1 -12 4 0 8 -16 8 -35 0 -19 -4 -35 -10 -35 -5 0 -4
-5 3 -12 7 -7 12 -35 12 -62 0 -28 7 -79 15 -114 8 -35 13 -67 10 -72 -3 -5
-2 -10 2 -12 5 -1 19 -34 32 -73 29 -88 98 -231 130 -268 7 -9 9 -22 5 -28 -4
-8 -3 -9 4 -5 6 4 19 -6 29 -21 25 -39 43 -61 77 -94 16 -16 25 -29 21 -29 -4
0 5 -10 21 -22 16 -12 40 -34 54 -48 41 -42 141 -115 208 -152 34 -19 59 -38
54 -42 -4 -4 -2 -7 3 -5 14 3 65 -12 65 -20 0 -3 17 -11 38 -18 20 -6 51 -17
67 -24 17 -7 32 -13 35 -14 134 -41 150 -44 285 -61 59 -8 6187 -10 6336 -3
42 2 75 7 72 12 -2 4 7 7 20 7 26 0 170 35 202 49 55 24 77 31 85 26 4 -3 11
2 14 10 3 8 9 14 13 13 4 -1 22 5 39 15 17 9 34 13 38 10 3 -4 6 -1 6 6 0 8 6
11 16 7 8 -3 13 -2 10 2 -3 5 16 19 42 33 26 13 52 31 59 39 7 8 13 11 13 6 0
-4 9 2 20 15 10 13 19 20 20 14 0 -5 7 1 16 13 8 12 19 22 24 22 5 0 40 31 79
69 39 38 71 67 71 63 0 -4 9 9 19 28 11 19 24 34 31 32 6 -1 9 1 6 6 -3 5 6
20 19 34 13 14 21 28 18 32 -3 3 2 8 11 12 9 3 16 12 16 19 0 8 6 20 13 27 7
7 21 31 31 53 11 22 24 43 29 47 6 3 12 15 13 25 2 21 47 146 54 153 3 3 5 12
5 20 -1 8 1 20 4 25 6 11 7 14 16 69 4 21 9 48 11 60 9 39 13 220 15 623 1
301 4 401 12 396 8 -5 8 -2 0 8 -14 18 -13 59 2 59 6 0 7 3 0 8 -16 11 -19 46
-3 36 10 -6 10 -4 2 7 -9 12 -12 82 -4 99 1 3 1 10 0 15 -7 25 -4 185 3 185 5
0 5 5 1 12 -10 16 -12 58 -3 58 6 0 5 23 -1 40 -6 14 -5 37 2 57 4 13 3 25 -3
29 -7 4 -7 10 0 18 6 7 6 17 1 26 -5 8 -6 18 -3 23 3 4 6 161 6 348 1 226 5
339 12 339 7 0 7 3 0 8 -6 4 -11 30 -11 57 0 28 5 53 11 57 6 5 6 8 -2 8 -13
0 -13 26 0 48 5 6 4 12 -2 12 -5 0 -7 10 -5 22 3 13 5 28 5 33 0 6 -2 36 -3
68 -2 31 1 57 5 57 5 0 5 5 1 11 -3 6 -6 41 -5 78 1 91 2 2465 1 2471 -1 3 -3
19 -5 35 -2 17 -10 54 -18 83 -8 28 -11 52 -8 52 3 0 1 4 -5 8 -5 4 -22 31
-38 61 -15 29 -38 65 -51 79 -13 14 -21 30 -18 35 3 6 1 7 -4 4 -6 -4 -21 6
-34 21 -13 16 -55 50 -94 77 -38 28 -71 53 -73 57 -2 5 -10 8 -17 8 -7 0 -15
3 -17 8 -1 4 -42 34 -90 67 -49 32 -88 62 -88 67 0 4 -6 8 -14 8 -8 0 -21 6
-29 14 -8 8 -28 23 -45 33 l-31 19 42 60 c23 32 45 61 49 62 5 2 8 8 8 12 0
15 74 110 85 110 6 0 17 -9 25 -19 7 -11 17 -18 21 -16 3 3 19 -7 35 -22 16
-15 30 -26 32 -25 9 7 22 -1 22 -14 0 -8 4 -12 10 -9 5 3 21 -5 35 -19 14 -14
25 -23 25 -20 0 2 9 0 21 -6 12 -7 18 -18 15 -26 -4 -9 -2 -12 5 -8 14 8 60
-16 53 -28 -3 -5 -1 -7 4 -6 13 4 132 -72 132 -84 0 -5 4 -7 8 -4 5 3 21 -6
37 -20 15 -13 33 -24 39 -24 15 0 38 16 36 24 -3 11 63 116 73 116 4 0 5 5 2
10 -3 6 -2 10 3 10 5 0 15 14 22 30 7 17 16 30 21 30 5 0 9 7 9 15 0 8 5 15
11 15 5 0 8 4 4 9 -3 6 0 13 7 18 14 9 27 27 59 86 15 29 25 37 37 32 13 -5
14 -4 5 6 -9 9 -7 19 10 43 12 17 27 37 34 44 7 7 13 19 13 27 0 7 6 15 13 18
8 3 4 10 -11 22 -12 9 -20 21 -16 26 3 5 2 9 -3 8 -21 -4 -41 3 -59 19 -10 10
-33 26 -51 37 -18 10 -30 22 -28 25 2 4 -2 7 -9 7 -12 0 -66 35 -94 61 -7 6
-20 12 -27 12 -7 0 -23 11 -34 26 -11 14 -21 25 -23 24 -9 -3 -37 13 -33 19 2
4 -1 8 -8 8 -17 0 -67 33 -67 44 0 5 -3 8 -7 7 -8 -2 -94 49 -103 62 -3 3 -22
16 -43 29 -36 22 -37 24 -23 45 8 11 19 20 25 19 6 -2 8 4 5 12 -4 8 -1 15 6
15 6 0 8 5 5 10 -3 6 -1 10 4 10 6 0 11 6 11 14 0 8 4 16 8 18 4 2 18 20 31
41 12 20 27 35 32 32 5 -4 6 2 2 11 -5 13 -3 15 7 9 8 -5 11 -4 6 3 -3 6 0 16
7 24 7 7 22 27 32 45 10 18 22 30 27 27 4 -3 5 2 2 10 -3 9 -1 16 5 16 6 0 11
7 11 15 0 8 3 15 8 15 4 0 15 14 24 31 11 18 22 27 29 23 7 -4 9 -3 6 3 -8 13
39 46 52 38 5 -3 11 0 13 6 2 7 18 12 35 13 17 0 29 3 27 5 -4 5 87 32 116 34
8 1 17 5 20 9 3 4 17 9 30 11 14 2 38 9 55 16 16 7 42 13 57 14 15 1 28 5 28
10 0 4 3 6 8 5 4 0 14 2 22 5 47 19 153 46 161 41 5 -3 9 0 9 6 0 6 6 10 13 9
6 -1 25 3 40 9 15 7 31 11 35 10 4 -1 20 4 37 11 16 7 37 10 47 8 10 -3 16 -1
12 4 -3 5 0 10 5 10 15 2 23 4 44 14 10 4 20 5 24 2 3 -3 12 1 20 9 13 13 13
22 3 61 -8 25 -13 52 -13 59 0 8 -5 14 -10 14 -5 0 -7 9 -4 20 3 11 1 20 -5
20 -6 0 -8 7 -4 15 3 8 2 15 -3 15 -5 0 -12 17 -16 38 -4 20 -18 71 -31 112
-14 41 -26 87 -27 102 -1 14 -5 24 -8 22 -3 -2 -13 25 -22 59 -8 34 -25 94
-36 132 -12 39 -19 76 -16 83 3 7 0 10 -5 7 -6 -3 -11 0 -12 7 -2 23 -5 33
-15 58 -6 14 -14 39 -17 57 -7 30 -10 32 -45 29 -21 -1 -44 -7 -52 -12 -18
-11 -38 -16 -71 -18 -14 0 -24 -4 -22 -8 4 -6 -14 -14 -55 -23 -12 -3 -31 -8
-43 -11 -13 -3 -30 -6 -38 -7 -8 -1 -18 -6 -21 -10 -3 -4 -17 -9 -30 -11 -13
-1 -37 -8 -54 -15 -16 -8 -42 -14 -57 -15 -16 0 -28 -4 -28 -7 0 -4 -7 -10
-16 -13 -9 -4 -13 -2 -8 5 3 6 -4 5 -17 -3 -13 -8 -31 -14 -39 -13 -8 0 -17
-3 -20 -7 -6 -7 -52 -19 -82 -21 -10 -1 -18 -5 -18 -10 0 -4 -4 -5 -10 -2 -5
3 -10 1 -10 -6 0 -7 -3 -10 -6 -7 -3 4 -35 -2 -71 -13 -36 -10 -70 -16 -76
-12 -6 3 -7 1 -4 -4 6 -10 -37 -29 -56 -25 -4 1 -7 -3 -7 -9 0 -6 -7 -9 -15
-5 -8 3 -15 1 -15 -5 0 -6 -7 -8 -16 -5 -8 3 -13 2 -10 -3 6 -8 -92 -58 -106
-53 -4 1 -7 -4 -6 -10 2 -7 -4 -13 -12 -13 -9 0 -25 -9 -37 -20 -37 -34 -52
-45 -62 -45 -5 0 -11 -3 -13 -8 -1 -4 -32 -32 -67 -62 -76 -65 -112 -100 -104
-100 3 0 -5 -10 -19 -23 -13 -12 -27 -31 -31 -40 -4 -11 -12 -15 -19 -11 -7 4
-10 4 -6 -1 7 -7 -168 -277 -184 -283 -4 -2 -8 -8 -8 -13 0 -7 -59 -98 -77
-119 -2 -2 -8 2 -13 10 -6 8 -10 12 -10 7 0 -4 -42 22 -94 58 -52 36 -99 65
-105 65 -5 0 -19 11 -30 26 -11 14 -23 25 -28 24 -4 0 -15 5 -24 12 -8 7 -29
20 -45 29 -16 9 -28 23 -28 33 1 12 -2 14 -10 7 -8 -7 -20 -4 -36 10 -14 10
-61 43 -105 71 -44 29 -82 55 -85 58 -3 3 -18 14 -33 23 -28 18 -29 18 -52 -9
-14 -16 -30 -41 -36 -56 -6 -15 -15 -28 -20 -28 -5 0 -9 -6 -9 -13 0 -7 -9
-23 -20 -35 -11 -12 -20 -24 -20 -27 0 -16 -128 -194 -135 -187 -4 4 -5 2 -1
-5 9 -16 -23 -65 -37 -56 -6 3 -7 1 -3 -5 7 -13 -23 -72 -36 -72 -4 0 -8 -7
-8 -16 0 -9 -5 -12 -12 -8 -10 6 -10 5 -1 -8 7 -8 9 -18 5 -22 -4 -4 -2 -7 3
-6 19 4 30 0 57 -24 15 -12 24 -26 21 -30 -4 -4 0 -4 9 -1 8 3 22 0 29 -7 8
-7 50 -37 94 -65 44 -28 89 -59 100 -70 12 -10 25 -20 30 -22 6 -2 16 -6 22
-8 7 -3 10 -10 6 -16 -3 -5 -2 -7 4 -4 5 4 21 -4 34 -16 13 -12 24 -20 25 -17
2 6 94 -59 94 -67 0 -3 -7 -3 -14 0 -10 4 -13 1 -9 -9 6 -16 -15 -47 -27 -39
-4 3 -7 -3 -6 -13 0 -9 -4 -16 -11 -15 -7 2 -10 -3 -8 -10 3 -6 -11 -30 -30
-52 -19 -22 -37 -48 -41 -57 -3 -10 -11 -18 -17 -18 -15 1 -48 25 -42 31 2 3
-6 6 -18 6 -12 1 -23 7 -25 13 -2 6 -17 17 -33 26 -17 8 -27 20 -23 26 4 6 3
8 -3 5 -5 -3 -32 10 -59 29 -27 20 -71 47 -99 61 -27 14 -52 28 -55 32 -3 3
-12 8 -20 9 -8 2 -42 11 -75 19 -33 9 -108 16 -167 17 -59 1 -109 4 -110 6
-25 39 -38 72 -32 82 4 7 3 8 -4 4 -11 -6 -14 0 -11 20 0 4 -3 10 -8 13 -12 8
-88 164 -85 174 1 4 -2 7 -7 7 -10 0 -27 39 -23 53 1 4 -2 7 -7 7 -10 0 -21
27 -20 44 0 5 -4 12 -9 15 -16 10 -72 134 -65 144 3 6 2 7 -4 4 -5 -3 -20 17
-33 46 -13 29 -27 55 -32 58 -4 3 -9 17 -10 31 -1 15 -5 25 -9 22 -8 -4 -21
26 -16 37 1 3 -6 13 -15 23 -10 10 -18 24 -18 32 0 8 -5 14 -11 14 -6 0 -9 7
-5 15 3 8 2 15 -2 15 -10 0 -42 66 -42 86 0 8 -4 12 -10 9 -5 -3 -10 0 -10 7
0 8 -16 44 -35 81 -20 38 -32 73 -29 79 4 6 3 8 -3 5 -11 -7 -36 43 -36 69 0
7 -4 11 -8 9 -7 -5 -33 49 -29 61 1 4 -3 10 -8 13 -14 9 -111 208 -105 215 4
3 2 6 -4 6 -14 0 -35 49 -27 62 4 7 2 8 -4 4 -7 -4 -12 -2 -12 4 0 6 -13 31
-30 55 -16 24 -30 46 -30 49 0 3 -16 20 -35 39 -19 19 -33 37 -30 40 3 4 2 5
-1 3 -3 -3 -28 13 -55 34 -27 21 -58 42 -69 45 -11 4 -20 11 -20 17 0 6 -3 8
-6 5 -4 -4 -19 0 -33 7 -36 19 -104 39 -140 40 -16 1 -33 4 -36 8 -4 4 -17 3
-30 -2 -13 -5 -25 -6 -28 -4 -3 3 -805 6 -1783 5 -1078 0 -1783 4 -1790 10 -6
5 -14 6 -18 2z m1107 -1197 c-5 -8 -3 -8 8 0 19 15 79 16 79 1 0 -9 2 -9 8 -1
10 15 154 15 145 0 -5 -8 -3 -8 8 0 19 15 79 16 79 1 0 -9 2 -9 8 -1 10 15
154 15 145 0 -5 -8 -3 -8 8 0 19 15 79 16 79 1 0 -9 2 -9 8 -1 10 15 154 15
145 0 -5 -8 -3 -8 8 0 19 15 79 16 79 1 0 -9 2 -9 8 -1 10 15 154 15 145 0 -5
-8 -3 -8 8 0 19 15 79 16 79 1 0 -9 2 -9 8 -1 5 8 164 11 542 10 l535 -1 42
-80 c23 -44 39 -83 37 -86 -2 -4 0 -9 4 -11 12 -4 84 -148 74 -148 -4 0 -2 -4
4 -8 18 -12 164 -313 157 -325 -3 -5 -2 -7 4 -4 13 8 36 -41 27 -55 -4 -6 -2
-8 3 -5 6 4 13 1 16 -6 3 -9 -6 -13 -34 -14 -23 0 -36 3 -33 9 3 5 -4 4 -15
-4 -18 -11 -23 -11 -31 2 -5 8 -10 10 -10 4 0 -12 -89 -13 -109 0 -9 6 -12 5
-8 -1 4 -6 -10 -10 -34 -11 -26 -1 -38 2 -34 9 4 6 -3 5 -14 -3 -18 -11 -23
-11 -31 2 -5 8 -10 10 -10 4 0 -12 -89 -13 -109 0 -9 6 -12 5 -8 -1 4 -6 -10
-10 -34 -11 -26 -1 -38 2 -34 9 4 6 -3 5 -14 -3 -18 -11 -23 -11 -31 2 -5 8
-10 10 -10 4 0 -12 -89 -13 -109 0 -9 6 -12 5 -8 -1 4 -6 -10 -10 -34 -11 -26
-1 -38 2 -34 9 4 6 -3 5 -14 -3 -18 -11 -23 -11 -31 2 -5 8 -10 10 -10 4 0
-12 -89 -13 -109 0 -9 6 -12 5 -8 -1 4 -6 -10 -10 -34 -11 -26 -1 -38 2 -34 9
4 6 -3 5 -14 -3 -18 -11 -23 -11 -31 2 -5 8 -10 10 -10 4 0 -13 -419 -11 -429
2 -3 5 -19 10 -36 10 -69 3 -76 4 -72 12 3 4 -13 8 -34 9 -22 0 -45 6 -53 12
-7 6 -16 8 -19 5 -3 -3 -12 -2 -19 2 -7 5 -15 9 -18 10 -3 1 -20 5 -38 9 -18
4 -35 12 -38 16 -3 5 -14 9 -25 9 -13 0 -18 4 -13 12 4 7 3 8 -4 4 -13 -7
-128 48 -199 96 -23 15 -47 28 -53 28 -6 0 -13 7 -16 15 -4 8 -11 15 -16 15
-5 0 -31 17 -56 38 -26 20 -58 46 -71 57 -70 56 -222 216 -215 226 4 7 3 9 -3
6 -6 -4 -21 5 -33 18 -13 14 -21 25 -18 25 4 0 -6 13 -20 29 -41 44 -51 58
-46 64 3 3 34 5 69 5 46 0 63 -4 58 -12z m-1190 -570 c-4 -5 -1 -6 5 -2 11 7
45 -46 37 -58 -3 -3 -2 -4 2 -1 11 8 33 -17 33 -38 0 -11 3 -17 7 -14 3 4 22
-16 41 -43 19 -28 39 -50 43 -50 5 0 9 -5 9 -10 0 -6 11 -23 24 -37 14 -15 22
-31 19 -37 -3 -6 -3 -8 2 -4 10 9 56 -42 49 -54 -3 -5 -1 -7 4 -6 5 2 33 -24
63 -57 30 -33 62 -66 72 -73 9 -7 14 -19 11 -25 -4 -7 -4 -9 1 -5 9 8 35 -15
35 -32 0 -6 4 -9 9 -6 4 3 22 -9 38 -27 39 -42 159 -144 245 -209 26 -19 45
-38 43 -42 -3 -3 -2 -4 1 -2 4 3 47 -23 98 -57 103 -70 143 -95 169 -103 9 -4
17 -9 17 -13 0 -4 16 -13 35 -20 19 -7 33 -17 30 -22 -3 -5 0 -6 8 -3 8 3 22
-2 30 -11 9 -9 20 -16 24 -15 4 0 35 -13 68 -29 71 -35 189 -81 205 -81 6 0 8
-5 4 -12 -4 -6 -3 -8 3 -5 11 7 113 -21 113 -31 0 -4 11 -8 25 -9 46 -4 55 -6
55 -15 0 -5 3 -7 8 -4 11 6 174 -34 191 -47 12 -9 13 -9 7 1 -7 13 6 17 17 5
4 -3 24 -8 45 -10 39 -4 77 -10 77 -13 0 -2 132 -12 180 -14 17 0 36 -8 43
-16 8 -8 11 -9 7 -2 -4 9 7 12 42 13 26 1 53 0 58 -1 9 -2 66 -2 195 -1 25 1
68 1 95 0 28 0 109 0 180 0 155 1 844 3 865 2 8 0 67 0 130 0 63 0 122 0 130
0 8 -1 58 -1 110 0 52 0 101 0 108 0 6 0 41 0 77 0 36 0 73 0 83 -1 9 0 69 1
132 1 63 0 121 0 128 0 36 -2 117 -2 194 -1 47 1 92 -1 98 -5 6 -4 17 -2 25 5
8 7 16 7 19 1 3 -5 16 -7 28 -3 16 4 19 2 13 -8 -5 -9 -4 -11 4 -6 10 7 41
-13 94 -59 9 -8 20 -15 25 -15 4 0 20 -11 36 -25 16 -14 33 -25 37 -25 4 0 14
-6 21 -13 7 -7 54 -41 103 -75 175 -120 210 -145 213 -154 2 -4 8 -8 12 -8 8
0 142 -92 183 -126 9 -7 21 -14 26 -14 4 0 21 -12 37 -28 16 -15 34 -29 39
-30 6 -2 19 -10 30 -20 11 -9 33 -23 48 -31 15 -8 27 -18 27 -23 0 -4 6 -8 14
-8 8 0 16 -4 18 -8 2 -5 39 -33 83 -62 44 -30 85 -58 90 -62 23 -19 132 -96
152 -106 20 -11 21 -19 21 -152 0 -105 -2 -138 -11 -133 -9 5 -9 3 0 -8 16
-20 16 -242 0 -232 -9 5 -9 3 0 -8 16 -20 16 -242 0 -232 -9 5 -9 3 0 -8 16
-20 16 -242 0 -232 -8 5 -8 2 0 -9 17 -20 16 -161 -1 -151 -8 5 -7 2 1 -8 16
-20 16 -242 0 -232 -9 5 -9 3 0 -8 16 -20 16 -242 0 -232 -9 5 -9 3 0 -8 15
-19 14 -189 -1 -189 -6 0 -4 -5 4 -10 13 -9 13 -11 0 -20 -8 -5 -10 -10 -5
-10 7 0 10 -35 10 -90 0 -49 -4 -90 -8 -90 -5 0 -5 -6 0 -12 11 -19 10 -98 -2
-98 -6 0 -6 -3 0 -8 10 -6 11 -20 5 -39 -1 -5 -1 -12 0 -18 2 -8 2 -310 0
-310 0 0 -1 -211 -3 -470 -1 -299 -6 -473 -12 -477 -7 -5 -7 -8 0 -8 11 0 12
-131 1 -149 -4 -6 -3 -11 2 -11 8 0 7 -61 -2 -102 -2 -10 0 -21 5 -24 5 -3 7
-9 4 -13 -2 -5 -6 -169 -6 -365 -1 -196 -6 -359 -11 -362 -5 -3 -5 -11 0 -17
11 -14 10 -56 -2 -76 -6 -9 -5 -12 1 -8 6 4 9 -13 9 -43 -1 -28 -5 -50 -9 -50
-5 0 -5 -5 -1 -12 4 -6 8 -26 9 -44 3 -61 -51 -91 -163 -92 -34 -1 -65 -1 -69
-2 -25 -4 -155 -1 -160 3 -3 3 -16 2 -29 -3 -16 -6 -24 -6 -24 1 0 6 -5 7 -10
4 -13 -8 -169 -9 -177 -2 -3 3 -16 2 -29 -3 -14 -6 -26 -6 -29 1 -4 5 -11 7
-17 3 -12 -7 -157 -8 -165 -1 -3 3 -16 2 -29 -3 -16 -6 -24 -6 -24 1 0 6 -5 7
-10 4 -13 -8 -169 -9 -177 -2 -3 3 -16 2 -29 -3 -14 -6 -26 -6 -29 1 -4 5 -11
6 -17 3 -5 -3 -51 -6 -101 -5 -135 2 -211 2 -222 1 -31 -4 -157 -1 -162 3 -3
3 -16 2 -29 -3 -16 -6 -24 -6 -24 1 0 6 -5 7 -10 4 -13 -8 -169 -9 -177 -2 -3
3 -16 2 -29 -3 -14 -6 -26 -6 -29 1 -4 5 -11 7 -17 3 -12 -7 -157 -8 -165 -1
-3 3 -16 2 -29 -3 -16 -6 -24 -6 -24 1 0 6 -5 7 -10 4 -13 -8 -169 -9 -177 -2
-3 3 -16 2 -29 -3 -15 -6 -26 -6 -30 1 -3 6 -10 7 -15 2 -4 -4 -348 -6 -764
-3 -416 3 -758 3 -760 1 -6 -5 -156 -3 -162 2 -3 3 -16 2 -29 -3 -14 -6 -26
-6 -29 1 -4 5 -11 7 -17 3 -12 -7 -157 -8 -165 -1 -3 3 -16 2 -29 -3 -16 -6
-24 -6 -24 1 0 6 -5 7 -10 4 -13 -8 -169 -9 -177 -2 -3 3 -16 2 -29 -3 -14 -6
-26 -6 -29 1 -4 5 -11 7 -17 3 -12 -7 -157 -8 -165 -1 -3 3 -16 2 -29 -3 -16
-6 -24 -6 -24 1 0 6 -5 7 -10 4 -13 -8 -169 -9 -177 -2 -3 3 -16 2 -29 -3 -14
-6 -26 -6 -29 1 -4 5 -11 7 -17 3 -12 -7 -157 -8 -165 -1 -3 3 -16 2 -29 -3
-16 -6 -24 -6 -24 1 0 6 -5 7 -10 4 -13 -8 -169 -9 -177 -2 -3 3 -16 2 -29 -3
-14 -6 -26 -6 -29 1 -4 5 -11 7 -17 3 -12 -7 -157 -8 -165 -1 -3 3 -16 2 -29
-3 -16 -6 -24 -6 -24 1 0 6 -5 7 -10 4 -13 -8 -169 -9 -177 -2 -3 3 -16 2 -29
-3 -15 -6 -24 -6 -24 0 0 6 -9 6 -24 0 -13 -5 -26 -6 -29 -4 -3 3 -20 8 -39
11 -39 6 -60 21 -51 36 3 5 1 7 -4 4 -6 -4 -15 -1 -20 6 -6 9 -10 6908 -4
7127 l1 35 24 -40 c13 -22 22 -44 19 -49z"/>
</g>
</svg>
