<?xml version="1.0" encoding="UTF-8" standalone="no"?>
<!DOCTYPE svg PUBLIC "-//W3C//DTD SVG 1.1//EN" "http://www.w3.org/Graphics/SVG/1.1/DTD/svg11.dtd">
<!-- Created with Vectornator (http://vectornator.io/) -->
<svg height="100%" stroke-miterlimit="10" style="fill-rule:nonzero;clip-rule:evenodd;stroke-linecap:round;stroke-linejoin:round;" version="1.1" viewBox="0 0 30 30" width="100%" xml:space="preserve" xmlns="http://www.w3.org/2000/svg" xmlns:xlink="http://www.w3.org/1999/xlink">
<defs/>
<clipPath id="ArtboardFrame">
<rect height="30" width="30" x="0" y="0"/>
</clipPath>
<g clip-path="url(#ArtboardFrame)" id="arrow.up.right.square">
<g opacity="1">
<path d="M4.46441 30.0007L25.5356 30.0007C28.4525 30.0007 30 28.4128 30 25.5409L30 4.45903C30 1.58722 28.4525-0.00074116 25.5356-0.00074116L4.46441-0.00074116C1.54897-0.00074116 1.13687e-13 1.54668 1.13687e-13 4.45903L1.13687e-13 25.5409C1.13687e-13 28.4533 1.54897 30.0007 4.46441 30.0007ZM4.50798 29.009C2.18815 29.009 0.990199 27.8156 0.990199 25.4897L0.990199 4.51029C0.990199 2.1859 2.18815 0.990984 4.50798 0.990984L25.492 0.990984C27.7307 0.990984 29.0097 2.1859 29.0097 4.51029L29.0097 25.4897C29.0097 27.8156 27.7307 29.009 25.492 29.009L4.50798 29.009Z" fill="#000000" fill-rule="nonzero" opacity="1" stroke="none"/>
<path d="M20.9005 18.908C21.1643 18.908 21.3662 18.7 21.3662 18.3942L21.3662 9.05163C21.3662 8.7462 21.1597 8.55349 20.8868 8.55349L11.5194 8.55349C11.212 8.55349 11.0086 8.73508 11.0086 8.99734C11.0086 9.30015 11.2135 9.48177 11.5224 9.48177L17.4341 9.48177L19.8024 9.47914L18.1021 11.1064L8.78751 20.4195C8.68656 20.5204 8.612 20.6477 8.612 20.8171C8.612 21.1012 8.8139 21.3031 9.09795 21.3031C9.29222 21.3031 9.41951 21.23 9.51894 21.1306L18.8133 11.8363L20.4172 10.1376L20.4161 13.2372L20.4161 18.3972C20.4161 18.7046 20.5977 18.908 20.9005 18.908Z" fill="#000000" fill-rule="nonzero" opacity="1" stroke="none"/>
</g>
</g>
</svg>
