<?xml version="1.0" encoding="UTF-8" standalone="no"?>
<!DOCTYPE svg PUBLIC "-//W3C//DTD SVG 1.1//EN" "http://www.w3.org/Graphics/SVG/1.1/DTD/svg11.dtd">
<!-- Created with Vectornator (http://vectornator.io/) -->
<svg height="100%" stroke-miterlimit="10" style="fill-rule:nonzero;clip-rule:evenodd;stroke-linecap:round;stroke-linejoin:round;" version="1.1" viewBox="0 0 30 30" width="100%" xml:space="preserve" xmlns="http://www.w3.org/2000/svg" xmlns:xlink="http://www.w3.org/1999/xlink">
<defs/>
<g id="arrow.right">
<path d="M18.2964 3.20565C17.7914 3.20565 17.3286 3.59095 17.3286 4.1129C17.3286 4.31142 17.3778 4.58871 17.6008 4.80847C19.2959 6.50066 22.6799 9.89047 24.375 11.5827C25.0116 12.2085 25.9963 13.1893 26.9153 14.0927C26.1308 14.0798 25.3529 14.0711 24.8286 14.0625C24.826 14.0625 24.801 14.0625 24.7984 14.0625C18.8275 14.0625 6.90836 14.0625 0.9375 14.0625C0.420649 14.0625 7.69092e-08 14.4855 4.44089e-16 15C4.44089e-16 15.5133 0.419382 15.9375 0.9375 15.9375C6.90836 15.9375 18.8275 15.9375 24.7984 15.9375C24.801 15.9375 24.826 15.9375 24.8286 15.9375C25.3529 15.9289 26.1308 15.9202 26.9153 15.9073C25.9963 16.8104 25.0116 17.7917 24.375 18.4173C22.6799 20.1095 19.2959 23.4993 17.6008 25.1915C17.3903 25.3982 17.3286 25.6553 17.3286 25.8871C17.3286 26.4081 17.7915 26.7944 18.2964 26.7944C18.568 26.7944 18.7706 26.6568 18.9012 26.5524C18.9158 26.5408 18.9486 26.5354 18.9617 26.5222C21.6517 23.8094 27.0076 18.3781 29.6976 15.6653C29.8406 15.5243 30 15.288 30 15C30 14.7149 29.844 14.4791 29.6976 14.3347C27.0494 11.6636 21.7611 6.33034 19.1129 3.65927C18.9812 3.51772 18.8653 3.40824 18.7198 3.32661C18.5706 3.24296 18.4261 3.20565 18.2964 3.20565Z" fill="#000000" fill-rule="nonzero" opacity="1" stroke="none"/>
</g>
</svg>
