<?xml version="1.0" encoding="UTF-8" standalone="no"?>
<!DOCTYPE svg PUBLIC "-//W3C//DTD SVG 1.1//EN" "http://www.w3.org/Graphics/SVG/1.1/DTD/svg11.dtd">
<!-- Created with Vectornator (http://vectornator.io/) -->
<svg height="100%" stroke-miterlimit="10" style="fill-rule:nonzero;clip-rule:evenodd;stroke-linecap:round;stroke-linejoin:round;" version="1.1" viewBox="0 0 30 30" width="100%" xml:space="preserve" xmlns="http://www.w3.org/2000/svg" xmlns:xlink="http://www.w3.org/1999/xlink">
<defs/>
<g id="arrow.right">
<path d="M30 15.0078C30 14.2146 29.6579 13.3593 29.1602 12.8616L19.7512 3.45257C19.1602 2.86159 18.4292 2.53499 17.7449 2.53499C15.972 2.53499 14.8367 3.74806 14.8367 5.30327C14.8367 6.23639 15.2566 6.88958 15.8165 7.41835L19.2068 10.7932L20.7309 12.2084L17.8383 12.0684L3.12597 12.0684C1.24417 12.0684 3.55271e-15 13.2348 3.55271e-15 15.0078C3.55271e-15 16.7807 1.24417 17.9627 3.12597 17.9627L17.8383 17.9627L20.7309 17.8227L19.2068 19.2379L15.8165 22.5816C15.2566 23.126 14.8367 23.7792 14.8367 24.6967C14.8367 26.2675 15.972 27.465 17.7449 27.465C18.4292 27.465 19.1602 27.154 19.7512 26.5474L29.1602 17.1695C29.6579 16.6563 30 15.8009 30 15.0078Z" fill="#000000" fill-rule="nonzero" opacity="1" stroke="none"/>
</g>
</svg>
