<?xml version="1.0" encoding="UTF-8" standalone="no"?>
<!DOCTYPE svg PUBLIC "-//W3C//DTD SVG 1.1//EN" "http://www.w3.org/Graphics/SVG/1.1/DTD/svg11.dtd">
<!-- Created with Vectornator (http://vectornator.io/) -->
<svg height="100%" stroke-miterlimit="10" style="fill-rule:nonzero;clip-rule:evenodd;stroke-linecap:round;stroke-linejoin:round;" version="1.1" viewBox="0 0 30 30" width="100%" xml:space="preserve" xmlns="http://www.w3.org/2000/svg" xmlns:xlink="http://www.w3.org/1999/xlink">
<defs/>
<g id="equal">
<path d="M1.2114 9.26366L28.7648 9.26366C29.4299 9.26366 30 8.71734 30 8.0285C30 7.36342 29.4299 6.8171 28.7648 6.8171L1.2114 6.8171C0.546318 6.8171 0 7.36342 0 8.0285C0 8.71734 0.546318 9.26366 1.2114 9.26366ZM1.2114 23.1829L28.7648 23.1829C29.4299 23.1829 30 22.6366 30 21.9715C30 21.3064 29.4299 20.7363 28.7648 20.7363L1.2114 20.7363C0.546318 20.7363 0 21.3064 0 21.9715C0 22.6366 0.546318 23.1829 1.2114 23.1829Z" fill="#000000" fill-rule="nonzero" opacity="1" stroke="none"/>
</g>
</svg>
