<?xml version="1.0" encoding="UTF-8" standalone="no"?>
<!DOCTYPE svg PUBLIC "-//W3C//DTD SVG 1.1//EN" "http://www.w3.org/Graphics/SVG/1.1/DTD/svg11.dtd">
<!-- Created with Vectornator (http://vectornator.io/) -->
<svg height="100%" stroke-miterlimit="10" style="fill-rule:nonzero;clip-rule:evenodd;stroke-linecap:round;stroke-linejoin:round;" version="1.1" viewBox="0 0 30 30" width="100%" xml:space="preserve" xmlns="http://www.w3.org/2000/svg" xmlns:xlink="http://www.w3.org/1999/xlink">
<defs/>
<g id="fuelpump">
<path d="M21.9899 28.9958L21.9899 3.46645C21.9899 2.35085 21.691 1.49422 21.0933 0.896529C20.4956 0.298843 19.6394 0 18.5247 0L6.29017 0C5.16707 0 4.31326 0.298843 3.72875 0.896529C3.14424 1.49422 2.85198 2.35085 2.85198 3.46645L2.85198 28.9958L5.17119 28.9958L5.18399 3.536C5.18399 2.74364 5.57642 2.34747 6.36126 2.34747L18.4667 2.34747C18.8463 2.34747 19.1374 2.44642 19.3399 2.64432C19.5424 2.84223 19.6437 3.13945 19.6437 3.536L19.6437 28.9958L21.9899 28.9958ZM0.701017 28.8192C0.701017 29.1452 0.813732 29.4235 1.03916 29.6541C1.26459 29.8847 1.5365 30 1.85488 30L22.9613 30C23.2797 30 23.5538 29.8847 23.7835 29.6541C24.0132 29.4235 24.128 29.1452 24.128 28.8192C24.128 28.5102 24.0129 28.2407 23.7828 28.0105C23.5527 27.7804 23.2788 27.6653 22.9613 27.6653L1.85488 27.6653C1.54592 27.6653 1.27637 27.7783 1.04623 28.0041C0.816087 28.23 0.701017 28.5017 0.701017 28.8192ZM8.17618 14.8662L16.6515 14.8662C17.0888 14.8662 17.4453 14.7427 17.7209 14.4958C17.9966 14.2489 18.1344 13.9256 18.1344 13.526L18.1344 5.41538C18.1344 5.00633 17.9947 4.67856 17.7153 4.43208C17.4359 4.18561 17.0813 4.06237 16.6515 4.06237L8.17618 4.06237C7.73798 4.06237 7.38342 4.18561 7.11251 4.43208C6.8416 4.67856 6.70614 5.00633 6.70614 5.41538L6.70614 13.526C6.70614 13.9256 6.84182 14.2489 7.11317 14.4958C7.38453 14.7427 7.73886 14.8662 8.17618 14.8662ZM20.9616 17.7434L22.1634 17.7434C22.4579 17.7434 22.6901 17.8262 22.86 17.9919C23.0299 18.1575 23.1148 18.3961 23.1148 18.7076L23.1148 23.121C23.1148 24.0842 23.3911 24.8424 23.9438 25.3954C24.4964 25.9484 25.2552 26.2249 26.2202 26.2249C27.1751 26.2249 27.9269 25.9484 28.4758 25.3954C29.0246 24.8424 29.299 24.0842 29.299 23.121L29.299 6.73705C29.299 6.32564 29.246 5.95309 29.1401 5.6194C29.0342 5.28571 28.8843 4.96364 28.6905 4.65321L26.8548 1.68575C26.6752 1.3971 26.4557 1.2321 26.1962 1.19074C25.9367 1.14937 25.6948 1.1957 25.4705 1.32972C25.2463 1.46375 25.0945 1.65554 25.0151 1.90511C24.9356 2.15468 24.9866 2.42563 25.1679 2.71796L26.7038 5.21093C26.8672 5.48354 26.8572 5.75614 26.674 6.02875L24.9478 8.44775C24.3814 9.22789 24.4162 9.99757 25.0523 10.7568L27.3116 13.3683L27.3116 23.121C27.3116 23.4692 27.2128 23.7401 27.0151 23.9335C26.8174 24.1269 26.5525 24.2236 26.2202 24.2236C25.8702 24.2236 25.5985 24.1269 25.405 23.9335C25.2115 23.7401 25.1147 23.4692 25.1147 23.121L25.1147 18.7076C25.1147 17.7726 24.8524 17.0469 24.3276 16.5306C23.8029 16.0144 23.0815 15.7562 22.1634 15.7562L20.9616 15.7562L20.9616 17.7434Z" fill="#000000" fill-rule="nonzero" opacity="1" stroke="none"/>
</g>
</svg>
