<?xml version="1.0" encoding="UTF-8" standalone="no"?>
<!DOCTYPE svg PUBLIC "-//W3C//DTD SVG 1.1//EN" "http://www.w3.org/Graphics/SVG/1.1/DTD/svg11.dtd">
<!-- Created with Vectornator (http://vectornator.io/) -->
<svg height="100%" stroke-miterlimit="10" style="fill-rule:nonzero;clip-rule:evenodd;stroke-linecap:round;stroke-linejoin:round;" version="1.1" viewBox="0 0 30 30" width="100%" xml:space="preserve" xmlns="http://www.w3.org/2000/svg" xmlns:xlink="http://www.w3.org/1999/xlink">
<defs/>
<g id="gearshape">
<path d="M13.5821 29.9851L16.4179 29.9851C17.4776 29.9851 18.2687 29.3582 18.5224 28.3284L19.1343 25.6716L19.6716 25.4627L22 26.9104C22.8806 27.4776 23.8955 27.3433 24.6418 26.597L26.6119 24.6119C27.3731 23.8657 27.5075 22.8657 26.9403 21.9701L25.4925 19.6567L25.6866 19.1343L28.3582 18.5224C29.3582 18.2687 30 17.4776 30 16.4328L30 13.6269C30 12.597 29.3731 11.791 28.3582 11.5373L25.7015 10.8955L25.5075 10.3731L26.9552 8.0597C27.5224 7.16418 27.3881 6.16418 26.6269 5.40299L24.6567 3.41791C23.9254 2.68657 22.9104 2.55224 22.0149 3.10448L19.7015 4.53731L19.1343 4.32836L18.5224 1.65672C18.2687 0.641791 17.4776 0.0149254 16.4179 0.0149254L13.5821 0.0149254C12.5224 0.0149254 11.7313 0.641791 11.4925 1.65672L10.8657 4.32836L10.2985 4.53731L7.98507 3.10448C7.08955 2.55224 6.07463 2.68657 5.34328 3.41791L3.37313 5.40299C2.61194 6.16418 2.47761 7.16418 3.04478 8.0597L4.49254 10.3731L4.29851 10.8955L1.65672 11.5373C0.626866 11.791 1.77636e-15 12.597 1.77636e-15 13.6269L1.77636e-15 16.4328C1.77636e-15 17.4776 0.641791 18.2687 1.65672 18.5224L4.31343 19.1343L4.50746 19.6567L3.0597 21.9701C2.49254 22.8657 2.62687 23.8657 3.37313 24.6119L5.35821 26.597C6.10448 27.3433 7.1194 27.4776 8 26.9104L10.3284 25.4627L10.8657 25.6716L11.4925 28.3284C11.7313 29.3582 12.5224 29.9851 13.5821 29.9851ZM13.791 27.9851C13.5075 27.9851 13.3582 27.8657 13.3134 27.597L12.4776 24.1343C11.6567 23.9104 10.8806 23.597 10.2836 23.2388L7.23881 25.1194C7.02985 25.2537 6.8209 25.2388 6.61194 25.0299L4.92537 23.3433C4.73134 23.1642 4.73134 22.9701 4.86567 22.7313L6.74627 19.7015C6.43284 19.1194 6.08955 18.3433 5.86567 17.5224L2.38806 16.7015C2.13433 16.6567 2 16.5075 2 16.2239L2 13.8209C2 13.5373 2.1194 13.403 2.38806 13.3433L5.85075 12.5224C6.07463 11.6418 6.46269 10.8358 6.71642 10.3134L4.85075 7.29851C4.70149 7.04478 4.71642 6.85075 4.91045 6.65672L6.59701 4.98507C6.80597 4.79104 6.98507 4.76119 7.23881 4.91045L10.2537 6.76119C10.8507 6.43284 11.6716 6.08955 12.4925 5.86567L13.3134 2.38806C13.3582 2.13433 13.5075 2.01493 13.791 2.01493L16.2239 2.01493C16.5075 2.01493 16.6418 2.1194 16.6866 2.38806L17.5224 5.8806C18.3731 6.10448 19.1194 6.44776 19.7313 6.77612L22.7612 4.91045C23.0149 4.76119 23.194 4.79104 23.403 4.98507L25.0896 6.65672C25.2836 6.85075 25.2985 7.04478 25.1493 7.29851L23.2836 10.3134C23.5373 10.8358 23.9403 11.6418 24.1493 12.5224L27.6269 13.3433C27.8955 13.403 28 13.5373 28 13.8209L28 16.2239C28 16.5075 27.8806 16.6567 27.6269 16.7015L24.1343 17.5224C23.9254 18.3582 23.5821 19.1194 23.2537 19.7015L25.1343 22.7313C25.2687 22.9701 25.2687 23.1642 25.0746 23.3433L23.3881 25.0299C23.1791 25.2388 22.9701 25.2537 22.7612 25.1194L19.7164 23.2388C19.1343 23.597 18.3731 23.9104 17.5224 24.1343L16.6866 27.597C16.6418 27.8657 16.5075 27.9851 16.2239 27.9851L13.791 27.9851ZM15.0149 20.3881C17.9552 20.3881 20.3881 17.9552 20.3881 14.9851C20.3881 12.0597 17.9552 9.62687 15.0149 9.62687C12.0597 9.62687 9.61194 12.0597 9.61194 14.9851C9.61194 17.9552 12.0448 20.3881 15.0149 20.3881ZM15.0149 18.403C13.1493 18.403 11.6119 16.8657 11.6119 14.9851C11.6119 13.1493 13.1493 11.6119 15.0149 11.6119C16.8358 11.6119 18.3731 13.1493 18.3731 14.9851C18.3731 16.8507 16.8358 18.403 15.0149 18.403Z" fill="#000000" fill-rule="nonzero" opacity="1" stroke="none"/>
</g>
</svg>
