<?xml version="1.0" encoding="UTF-8" standalone="no"?>
<!DOCTYPE svg PUBLIC "-//W3C//DTD SVG 1.1//EN" "http://www.w3.org/Graphics/SVG/1.1/DTD/svg11.dtd">
<!-- Created with Vectornator (http://vectornator.io/) -->
<svg height="100%" stroke-miterlimit="10" style="fill-rule:nonzero;clip-rule:evenodd;stroke-linecap:round;stroke-linejoin:round;" version="1.1" viewBox="0 0 30 30" width="100%" xml:space="preserve" xmlns="http://www.w3.org/2000/svg" xmlns:xlink="http://www.w3.org/1999/xlink">
<defs/>
<g id="person" visibility="hidden">
<path d="M15.0176 14.8858C18.8489 14.8858 21.8717 11.5641 21.8717 7.34622C21.8717 3.28647 18.7961 1.9984e-15 15.0176 1.9984e-15C11.2566 1.9984e-15 8.14587 3.32162 8.18102 7.3638C8.19859 11.5641 11.2039 14.8858 15.0176 14.8858ZM15.0176 13.2865C12.1529 13.2865 9.85062 10.7206 9.85062 7.3638C9.83304 4.18278 12.1705 1.5993 15.0176 1.5993C17.8647 1.5993 20.2021 4.14763 20.2021 7.34622C20.2021 10.703 17.8998 13.2865 15.0176 13.2865ZM4.12127 30L25.8787 30C28.1107 30 29.1652 29.2619 29.1652 27.6626C29.1652 23.3568 23.7522 17.2759 15 17.2759C6.2478 17.2759 0.834798 23.3568 0.834798 27.6626C0.834798 29.2619 1.88928 30 4.12127 30ZM3.7522 28.4007C2.82074 28.4007 2.50439 28.1722 2.50439 27.522C2.50439 24.1301 7.07381 18.8752 15 18.8752C22.9086 18.8752 27.4956 24.1301 27.4956 27.522C27.4956 28.1722 27.1793 28.4007 26.2302 28.4007L3.7522 28.4007Z" fill="#000000" fill-rule="nonzero" opacity="1" stroke="none"/>
</g>
<g id="person.crop.circle.badge.plus" visibility="hidden">
<path d="M17.372 27.5202C24.2992 27.5202 30 21.8194 30 14.9057C30 7.97844 24.2857 2.27763 17.372 2.27763C10.7278 2.27763 5.24259 7.50674 4.79784 14.0296C5.20216 13.9623 5.72776 13.9084 6.15903 13.9488C6.61725 8.15364 11.442 3.61186 17.372 3.61186C23.6119 3.61186 28.6658 8.66577 28.6658 14.9057C28.6658 17.8571 27.5337 20.566 25.6604 22.5606C24.5957 20.9569 21.5094 19.1105 17.372 19.1105C15.9838 19.1105 14.7035 19.3396 13.5714 19.6765C13.7197 20.2426 13.8005 20.8491 13.8005 21.469C13.8005 23.2884 13.1267 24.973 12.0216 26.3073C13.6523 27.0889 15.4717 27.5202 17.372 27.5202ZM17.372 16.9272C19.8113 16.9407 21.6846 14.8652 21.6846 12.1429C21.6846 9.59569 19.7844 7.46631 17.372 7.46631C14.9596 7.46631 13.0323 9.59569 13.0458 12.1429C13.0728 14.8652 14.9326 16.9137 17.372 16.9272ZM6.23989 27.7224C9.63612 27.7224 12.4798 24.9057 12.4798 21.4825C12.4798 18.0593 9.66307 15.2426 6.23989 15.2426C2.81671 15.2426 0 18.0728 0 21.4825C0 24.9191 2.81671 27.7224 6.23989 27.7224ZM2.25067 21.4825C2.25067 21.1051 2.52022 20.8625 2.87062 20.8625L5.61995 20.8625L5.61995 18.1267C5.61995 17.7763 5.84906 17.5067 6.23989 17.5067C6.61725 17.5067 6.85984 17.7763 6.85984 18.1267L6.85984 20.8625L9.59569 20.8625C9.95957 20.8625 10.2156 21.1051 10.2156 21.4825C10.2156 21.8733 9.95957 22.1024 9.59569 22.1024L6.85984 22.1024L6.85984 24.8518C6.85984 25.2156 6.61725 25.4717 6.23989 25.4717C5.84906 25.4717 5.61995 25.2156 5.61995 24.8518L5.61995 22.1024L2.87062 22.1024C2.52022 22.1024 2.25067 21.8733 2.25067 21.4825Z" fill="#000000" fill-rule="nonzero" opacity="1" stroke="none"/>
</g>
<g id="rectangle.3.group" visibility="hidden">
<path d="M1.94805 14.4746L12.7863 14.4746C14.0732 14.4746 14.7344 13.8607 14.7344 12.5266L14.7344 7.24911C14.7344 5.91499 14.0732 5.31287 12.7863 5.31287L1.94805 5.31287C0.661157 5.31287 0 5.91499 0 7.24911L0 12.5266C0 13.8607 0.661157 14.4746 1.94805 14.4746ZM2.01889 13.4002C1.36954 13.4002 1.07438 13.1051 1.07438 12.4321L1.07438 7.34357C1.07438 6.6706 1.36954 6.37544 2.01889 6.37544L12.7037 6.37544C13.3648 6.37544 13.66 6.6706 13.66 7.34357L13.66 12.4321C13.66 13.1051 13.3648 13.4002 12.7037 13.4002L2.01889 13.4002ZM20.1889 23.4947L28.0401 23.4947C29.327 23.4947 30 22.8808 30 21.5466L30 8.63046C30 7.29634 29.327 6.68241 28.0401 6.68241L20.1889 6.68241C18.902 6.68241 18.229 7.29634 18.229 8.63046L18.229 21.5466C18.229 22.8808 18.902 23.4947 20.1889 23.4947ZM20.2597 22.4203C19.6104 22.4203 19.3034 22.1133 19.3034 21.4522L19.3034 8.72491C19.3034 8.05195 19.6104 7.75679 20.2597 7.75679L27.9575 7.75679C28.6187 7.75679 28.9256 8.05195 28.9256 8.72491L28.9256 21.4522C28.9256 22.1133 28.6187 22.4203 27.9575 22.4203L20.2597 22.4203ZM4.79339 24.6871L14.1795 24.6871C15.4782 24.6871 16.1393 24.0732 16.1393 22.7391L16.1393 18.902C16.1393 17.5797 15.4782 16.9658 14.1795 16.9658L4.79339 16.9658C3.50649 16.9658 2.83353 17.5797 2.83353 18.902L2.83353 22.7391C2.83353 24.0732 3.50649 24.6871 4.79339 24.6871ZM4.86423 23.6128C4.21488 23.6128 3.90791 23.3176 3.90791 22.6446L3.90791 19.0083C3.90791 18.3353 4.21488 18.0401 4.86423 18.0401L14.1086 18.0401C14.7698 18.0401 15.0649 18.3353 15.0649 19.0083L15.0649 22.6446C15.0649 23.3176 14.7698 23.6128 14.1086 23.6128L4.86423 23.6128Z" fill="#000000" fill-rule="nonzero" opacity="1" stroke="none"/>
</g>
<g id="house" visibility="hidden">
<path d="M6.07327 28.5574L23.9267 28.5574C25.6177 28.5574 26.5336 27.6274 26.5336 25.9647L26.5336 12.3526L28.7318 14.1986C28.9009 14.3395 29.07 14.4522 29.3095 14.4522C29.7041 14.4522 30 14.1986 30 13.8181C30 13.5645 29.9155 13.3954 29.7182 13.2263L26.5336 10.549L26.5336 4.99706C26.5336 4.58842 26.2518 4.3066 25.8431 4.3066L24.7017 4.3066C24.2931 4.3066 23.9972 4.58842 23.9972 4.99706L23.9972 8.40712L16.3598 1.98156C15.5284 1.26292 14.542 1.26292 13.6966 1.98156L0.295914 13.2263C0.0845467 13.3954 0 13.5926 0 13.804C0 14.1422 0.267731 14.4522 0.704556 14.4522C0.930014 14.4522 1.09911 14.3395 1.2682 14.1986L3.45233 12.3667L3.45233 25.9647C3.45233 27.6415 4.38234 28.5574 6.07327 28.5574ZM18.713 17.7918C18.713 17.2704 18.3748 16.9322 17.8675 16.9322L12.1465 16.9322C11.6252 16.9322 11.287 17.2704 11.287 17.7918L11.287 27.2047L6.3551 27.2047C5.29826 27.2047 4.80507 26.7115 4.80507 25.6547L4.80507 11.2394L14.4716 3.12295C14.8098 2.82703 15.1902 2.78476 15.5848 3.12295L25.1949 11.2253L25.1949 25.6547C25.1949 26.7115 24.7017 27.2047 23.6449 27.2047L18.713 27.2047L18.713 17.7918Z" fill="#000000" fill-rule="nonzero" opacity="1" stroke="none"/>
</g>
<g id="equal" visibility="hidden">
<path d="M1.2114 9.26366L28.7648 9.26366C29.4299 9.26366 30 8.71734 30 8.0285C30 7.36342 29.4299 6.8171 28.7648 6.8171L1.2114 6.8171C0.546318 6.8171 0 7.36342 0 8.0285C0 8.71734 0.546318 9.26366 1.2114 9.26366ZM1.2114 23.1829L28.7648 23.1829C29.4299 23.1829 30 22.6366 30 21.9715C30 21.3064 29.4299 20.7363 28.7648 20.7363L1.2114 20.7363C0.546318 20.7363 0 21.3064 0 21.9715C0 22.6366 0.546318 23.1829 1.2114 23.1829Z" fill="#000000" fill-rule="nonzero" opacity="1" stroke="none"/>
</g>
<g id="person.crop.circle" visibility="hidden">
<path d="M15.008 30C23.2248 30 30 23.2248 30 15.008C30 6.77523 23.2248 0 14.992 0C6.75921 0 1.77636e-15 6.77523 1.77636e-15 15.008C1.77636e-15 23.2248 6.77523 30 15.008 30ZM15.008 20.0374C10.1228 20.0374 6.45489 22.1356 5.12547 24.0897C2.93113 21.7032 1.58569 18.5158 1.58569 15.008C1.58569 7.5921 7.57608 1.58569 14.992 1.58569C22.4079 1.58569 28.4143 7.5921 28.4143 15.008C28.4143 18.5158 27.0689 21.7032 24.8745 24.1057C23.5611 22.1196 19.8932 20.0374 15.008 20.0374ZM15.008 17.4426C17.9071 17.4586 20.1335 14.976 20.1335 11.7565C20.1335 8.72931 17.859 6.18259 15.008 6.18259C12.141 6.18259 9.85051 8.72931 9.86652 11.7565C9.86652 14.976 12.0929 17.4266 15.008 17.4426Z" fill="#000000" fill-rule="nonzero" opacity="1" stroke="none"/>
</g>
<g id="gearshape" visibility="hidden">
<path d="M13.5821 29.9851L16.4179 29.9851C17.4776 29.9851 18.2687 29.3582 18.5224 28.3284L19.1343 25.6716L19.6716 25.4627L22 26.9104C22.8806 27.4776 23.8955 27.3433 24.6418 26.597L26.6119 24.6119C27.3731 23.8657 27.5075 22.8657 26.9403 21.9701L25.4925 19.6567L25.6866 19.1343L28.3582 18.5224C29.3582 18.2687 30 17.4776 30 16.4328L30 13.6269C30 12.597 29.3731 11.791 28.3582 11.5373L25.7015 10.8955L25.5075 10.3731L26.9552 8.0597C27.5224 7.16418 27.3881 6.16418 26.6269 5.40299L24.6567 3.41791C23.9254 2.68657 22.9104 2.55224 22.0149 3.10448L19.7015 4.53731L19.1343 4.32836L18.5224 1.65672C18.2687 0.641791 17.4776 0.0149254 16.4179 0.0149254L13.5821 0.0149254C12.5224 0.0149254 11.7313 0.641791 11.4925 1.65672L10.8657 4.32836L10.2985 4.53731L7.98507 3.10448C7.08955 2.55224 6.07463 2.68657 5.34328 3.41791L3.37313 5.40299C2.61194 6.16418 2.47761 7.16418 3.04478 8.0597L4.49254 10.3731L4.29851 10.8955L1.65672 11.5373C0.626866 11.791 1.77636e-15 12.597 1.77636e-15 13.6269L1.77636e-15 16.4328C1.77636e-15 17.4776 0.641791 18.2687 1.65672 18.5224L4.31343 19.1343L4.50746 19.6567L3.0597 21.9701C2.49254 22.8657 2.62687 23.8657 3.37313 24.6119L5.35821 26.597C6.10448 27.3433 7.1194 27.4776 8 26.9104L10.3284 25.4627L10.8657 25.6716L11.4925 28.3284C11.7313 29.3582 12.5224 29.9851 13.5821 29.9851ZM13.791 27.9851C13.5075 27.9851 13.3582 27.8657 13.3134 27.597L12.4776 24.1343C11.6567 23.9104 10.8806 23.597 10.2836 23.2388L7.23881 25.1194C7.02985 25.2537 6.8209 25.2388 6.61194 25.0299L4.92537 23.3433C4.73134 23.1642 4.73134 22.9701 4.86567 22.7313L6.74627 19.7015C6.43284 19.1194 6.08955 18.3433 5.86567 17.5224L2.38806 16.7015C2.13433 16.6567 2 16.5075 2 16.2239L2 13.8209C2 13.5373 2.1194 13.403 2.38806 13.3433L5.85075 12.5224C6.07463 11.6418 6.46269 10.8358 6.71642 10.3134L4.85075 7.29851C4.70149 7.04478 4.71642 6.85075 4.91045 6.65672L6.59701 4.98507C6.80597 4.79104 6.98507 4.76119 7.23881 4.91045L10.2537 6.76119C10.8507 6.43284 11.6716 6.08955 12.4925 5.86567L13.3134 2.38806C13.3582 2.13433 13.5075 2.01493 13.791 2.01493L16.2239 2.01493C16.5075 2.01493 16.6418 2.1194 16.6866 2.38806L17.5224 5.8806C18.3731 6.10448 19.1194 6.44776 19.7313 6.77612L22.7612 4.91045C23.0149 4.76119 23.194 4.79104 23.403 4.98507L25.0896 6.65672C25.2836 6.85075 25.2985 7.04478 25.1493 7.29851L23.2836 10.3134C23.5373 10.8358 23.9403 11.6418 24.1493 12.5224L27.6269 13.3433C27.8955 13.403 28 13.5373 28 13.8209L28 16.2239C28 16.5075 27.8806 16.6567 27.6269 16.7015L24.1343 17.5224C23.9254 18.3582 23.5821 19.1194 23.2537 19.7015L25.1343 22.7313C25.2687 22.9701 25.2687 23.1642 25.0746 23.3433L23.3881 25.0299C23.1791 25.2388 22.9701 25.2537 22.7612 25.1194L19.7164 23.2388C19.1343 23.597 18.3731 23.9104 17.5224 24.1343L16.6866 27.597C16.6418 27.8657 16.5075 27.9851 16.2239 27.9851L13.791 27.9851ZM15.0149 20.3881C17.9552 20.3881 20.3881 17.9552 20.3881 14.9851C20.3881 12.0597 17.9552 9.62687 15.0149 9.62687C12.0597 9.62687 9.61194 12.0597 9.61194 14.9851C9.61194 17.9552 12.0448 20.3881 15.0149 20.3881ZM15.0149 18.403C13.1493 18.403 11.6119 16.8657 11.6119 14.9851C11.6119 13.1493 13.1493 11.6119 15.0149 11.6119C16.8358 11.6119 18.3731 13.1493 18.3731 14.9851C18.3731 16.8507 16.8358 18.403 15.0149 18.403Z" fill="#000000" fill-rule="nonzero" opacity="1" stroke="none"/>
</g>
<g id="fuelpump" visibility="hidden">
<path d="M21.9899 28.9958L21.9899 3.46645C21.9899 2.35085 21.691 1.49422 21.0933 0.896529C20.4956 0.298843 19.6394 0 18.5247 0L6.29017 0C5.16707 0 4.31326 0.298843 3.72875 0.896529C3.14424 1.49422 2.85198 2.35085 2.85198 3.46645L2.85198 28.9958L5.17119 28.9958L5.18399 3.536C5.18399 2.74364 5.57642 2.34747 6.36126 2.34747L18.4667 2.34747C18.8463 2.34747 19.1374 2.44642 19.3399 2.64432C19.5424 2.84223 19.6437 3.13945 19.6437 3.536L19.6437 28.9958L21.9899 28.9958ZM0.701017 28.8192C0.701017 29.1452 0.813732 29.4235 1.03916 29.6541C1.26459 29.8847 1.5365 30 1.85488 30L22.9613 30C23.2797 30 23.5538 29.8847 23.7835 29.6541C24.0132 29.4235 24.128 29.1452 24.128 28.8192C24.128 28.5102 24.0129 28.2407 23.7828 28.0105C23.5527 27.7804 23.2788 27.6653 22.9613 27.6653L1.85488 27.6653C1.54592 27.6653 1.27637 27.7783 1.04623 28.0041C0.816087 28.23 0.701017 28.5017 0.701017 28.8192ZM8.17618 14.8662L16.6515 14.8662C17.0888 14.8662 17.4453 14.7427 17.7209 14.4958C17.9966 14.2489 18.1344 13.9256 18.1344 13.526L18.1344 5.41538C18.1344 5.00633 17.9947 4.67856 17.7153 4.43208C17.4359 4.18561 17.0813 4.06237 16.6515 4.06237L8.17618 4.06237C7.73798 4.06237 7.38342 4.18561 7.11251 4.43208C6.8416 4.67856 6.70614 5.00633 6.70614 5.41538L6.70614 13.526C6.70614 13.9256 6.84182 14.2489 7.11317 14.4958C7.38453 14.7427 7.73886 14.8662 8.17618 14.8662ZM20.9616 17.7434L22.1634 17.7434C22.4579 17.7434 22.6901 17.8262 22.86 17.9919C23.0299 18.1575 23.1148 18.3961 23.1148 18.7076L23.1148 23.121C23.1148 24.0842 23.3911 24.8424 23.9438 25.3954C24.4964 25.9484 25.2552 26.2249 26.2202 26.2249C27.1751 26.2249 27.9269 25.9484 28.4758 25.3954C29.0246 24.8424 29.299 24.0842 29.299 23.121L29.299 6.73705C29.299 6.32564 29.246 5.95309 29.1401 5.6194C29.0342 5.28571 28.8843 4.96364 28.6905 4.65321L26.8548 1.68575C26.6752 1.3971 26.4557 1.2321 26.1962 1.19074C25.9367 1.14937 25.6948 1.1957 25.4705 1.32972C25.2463 1.46375 25.0945 1.65554 25.0151 1.90511C24.9356 2.15468 24.9866 2.42563 25.1679 2.71796L26.7038 5.21093C26.8672 5.48354 26.8572 5.75614 26.674 6.02875L24.9478 8.44775C24.3814 9.22789 24.4162 9.99757 25.0523 10.7568L27.3116 13.3683L27.3116 23.121C27.3116 23.4692 27.2128 23.7401 27.0151 23.9335C26.8174 24.1269 26.5525 24.2236 26.2202 24.2236C25.8702 24.2236 25.5985 24.1269 25.405 23.9335C25.2115 23.7401 25.1147 23.4692 25.1147 23.121L25.1147 18.7076C25.1147 17.7726 24.8524 17.0469 24.3276 16.5306C23.8029 16.0144 23.0815 15.7562 22.1634 15.7562L20.9616 15.7562L20.9616 17.7434Z" fill="#000000" fill-rule="nonzero" opacity="1" stroke="none"/>
</g>
<g id="arrow.right" visibility="hidden">
<path d="M18.2964 3.20565C17.7914 3.20565 17.3286 3.59095 17.3286 4.1129C17.3286 4.31142 17.3778 4.58871 17.6008 4.80847C19.2959 6.50066 22.6799 9.89047 24.375 11.5827C25.0116 12.2085 25.9963 13.1893 26.9153 14.0927C26.1308 14.0798 25.3529 14.0711 24.8286 14.0625C24.826 14.0625 24.801 14.0625 24.7984 14.0625C18.8275 14.0625 6.90836 14.0625 0.9375 14.0625C0.420649 14.0625 7.69092e-08 14.4855 4.44089e-16 15C4.44089e-16 15.5133 0.419382 15.9375 0.9375 15.9375C6.90836 15.9375 18.8275 15.9375 24.7984 15.9375C24.801 15.9375 24.826 15.9375 24.8286 15.9375C25.3529 15.9289 26.1308 15.9202 26.9153 15.9073C25.9963 16.8104 25.0116 17.7917 24.375 18.4173C22.6799 20.1095 19.2959 23.4993 17.6008 25.1915C17.3903 25.3982 17.3286 25.6553 17.3286 25.8871C17.3286 26.4081 17.7915 26.7944 18.2964 26.7944C18.568 26.7944 18.7706 26.6568 18.9012 26.5524C18.9158 26.5408 18.9486 26.5354 18.9617 26.5222C21.6517 23.8094 27.0076 18.3781 29.6976 15.6653C29.8406 15.5243 30 15.288 30 15C30 14.7149 29.844 14.4791 29.6976 14.3347C27.0494 11.6636 21.7611 6.33034 19.1129 3.65927C18.9812 3.51772 18.8653 3.40824 18.7198 3.32661C18.5706 3.24296 18.4261 3.20565 18.2964 3.20565Z" fill="#000000" fill-rule="nonzero" opacity="1" stroke="none"/>
</g>
<clipPath id="ArtboardFrame">
<rect height="30" width="30" x="0" y="0"/>
</clipPath>
<g clip-path="url(#ArtboardFrame)" id="arrow.up.right.square" visibility="hidden">
<g opacity="1">
<path d="M4.46441 30.0007L25.5356 30.0007C28.4525 30.0007 30 28.4128 30 25.5409L30 4.45903C30 1.58722 28.4525-0.00074116 25.5356-0.00074116L4.46441-0.00074116C1.54897-0.00074116 1.13687e-13 1.54668 1.13687e-13 4.45903L1.13687e-13 25.5409C1.13687e-13 28.4533 1.54897 30.0007 4.46441 30.0007ZM4.50798 29.009C2.18815 29.009 0.990199 27.8156 0.990199 25.4897L0.990199 4.51029C0.990199 2.1859 2.18815 0.990984 4.50798 0.990984L25.492 0.990984C27.7307 0.990984 29.0097 2.1859 29.0097 4.51029L29.0097 25.4897C29.0097 27.8156 27.7307 29.009 25.492 29.009L4.50798 29.009Z" fill="#000000" fill-rule="nonzero" opacity="1" stroke="none"/>
<path d="M20.9005 18.908C21.1643 18.908 21.3662 18.7 21.3662 18.3942L21.3662 9.05163C21.3662 8.7462 21.1597 8.55349 20.8868 8.55349L11.5194 8.55349C11.212 8.55349 11.0086 8.73508 11.0086 8.99734C11.0086 9.30015 11.2135 9.48177 11.5224 9.48177L17.4341 9.48177L19.8024 9.47914L18.1021 11.1064L8.78751 20.4195C8.68656 20.5204 8.612 20.6477 8.612 20.8171C8.612 21.1012 8.8139 21.3031 9.09795 21.3031C9.29222 21.3031 9.41951 21.23 9.51894 21.1306L18.8133 11.8363L20.4172 10.1376L20.4161 13.2372L20.4161 18.3972C20.4161 18.7046 20.5977 18.908 20.9005 18.908Z" fill="#000000" fill-rule="nonzero" opacity="1" stroke="none"/>
</g>
</g>
<g id="xmark" visibility="hidden">
<path d="M0.317329 28.1556C-0.0953953 28.589-0.116032 29.2699 0.317329 29.6827C0.75069 30.0954 1.41105 30.0954 1.84441 29.6827L14.9897 16.5168L28.1556 29.6827C28.5683 30.0954 29.2699 30.116 29.6827 29.6827C30.0954 29.2493 30.0954 28.589 29.6827 28.1556L16.5168 15.0103L29.6827 1.84441C30.0954 1.43168 30.116 0.730053 29.6827 0.317329C29.2493-0.0953953 28.5683-0.0953953 28.1556 0.317329L14.9897 13.4832L1.84441 0.317329C1.41105-0.0953953 0.730053-0.116032 0.317329 0.317329C-0.0953953 0.75069-0.0953953 1.43168 0.317329 1.84441L13.4832 15.0103L0.317329 28.1556Z" fill="#000000" fill-rule="nonzero" opacity="1" stroke="none"/>
</g>
<g id="sun.max" visibility="hidden">
<path d="M16.4279 1.4279C16.4279 0.657956 15.7699 2.84495e-16 15 2.84495e-16C14.2301 2.84495e-16 13.5721 0.657956 13.5721 1.4279L13.5721 4.08773C13.5721 4.85768 14.2301 5.51563 15 5.51563C15.7699 5.51563 16.4279 4.85768 16.4279 4.08773L16.4279 1.4279ZM21.6916 6.31358C21.1456 6.84554 21.1596 7.76948 21.7056 8.32944C22.2515 8.86141 23.1755 8.87541 23.7214 8.31545L25.6113 6.42557C26.1433 5.89361 26.1433 4.95567 25.5973 4.40971C25.0513 3.86374 24.1274 3.87774 23.5814 4.42371L21.6916 6.31358ZM6.27858 8.31545C6.82455 8.86141 7.74848 8.86141 8.28045 8.32944C8.84041 7.78348 8.84041 6.84554 8.30845 6.31358L6.43257 4.42371C5.90061 3.87774 4.96267 3.86374 4.41671 4.40971C3.87074 4.95567 3.87074 5.89361 4.40271 6.42557L6.27858 8.31545ZM15 7.90947C11.1223 7.90947 7.91647 11.1153 7.91647 14.993C7.91647 18.8707 11.1223 22.0765 15 22.0765C18.8637 22.0765 22.0695 18.8707 22.0695 14.993C22.0695 11.1153 18.8637 7.90947 15 7.90947ZM15 10.6253C17.3798 10.6253 19.3677 12.6132 19.3677 14.993C19.3677 17.3868 17.3798 19.3607 15 19.3607C12.6062 19.3607 10.6323 17.3868 10.6323 14.993C10.6323 12.6132 12.6062 10.6253 15 10.6253ZM28.5511 16.4209C29.321 16.4209 29.979 15.7769 29.979 14.993C29.979 14.2231 29.321 13.5651 28.5511 13.5651L25.9053 13.5651C25.1353 13.5651 24.4774 14.2231 24.4774 14.993C24.4774 15.7769 25.1353 16.4209 25.9053 16.4209L28.5511 16.4209ZM1.4489 13.5651C0.678955 13.5651 0.0209986 14.2231 0.0209986 14.993C0.0209986 15.7769 0.678955 16.4209 1.4489 16.4209L4.09473 16.4209C4.86468 16.4209 5.52263 15.7769 5.52263 14.993C5.52263 14.2231 4.86468 13.5651 4.09473 13.5651L1.4489 13.5651ZM23.7074 21.6846C23.1615 21.1386 22.2375 21.1526 21.6916 21.6986C21.1456 22.2445 21.1596 23.1545 21.7056 23.7144L23.5954 25.5903C24.1414 26.1363 25.0653 26.1223 25.6113 25.5763C26.1573 25.0303 26.1433 24.1064 25.5973 23.5604L23.7074 21.6846ZM4.40271 23.5464C3.85674 24.0924 3.84274 25.0163 4.37471 25.5623C4.92067 26.1083 5.85861 26.1223 6.40457 25.5903L8.28045 23.7144C8.84041 23.1685 8.84041 22.2445 8.30845 21.6986C7.76248 21.1526 6.82455 21.1526 6.27858 21.6846L4.40271 23.5464ZM16.4279 25.9123C16.4279 25.1423 15.7699 24.4844 15 24.4844C14.2301 24.4844 13.5721 25.1423 13.5721 25.9123L13.5721 28.5581C13.5721 29.342 14.2301 30 15 30C15.7699 30 16.4279 29.342 16.4279 28.5581L16.4279 25.9123Z" fill="#000000" fill-rule="nonzero" opacity="1" stroke="none"/>
</g>
<g id="moon" visibility="hidden">
<path d="M23.0751 19.5699C15.443 19.5699 10.6865 15 10.6865 7.60104C10.6865 5.51813 11.0285 3.62176 11.5725 2.59585C11.8368 2.0829 11.9301 1.74093 11.9301 1.36788C11.9301 0.668394 11.3705 0 10.5466 0C10.329 0 9.95596 0.0621762 9.47409 0.248705C3.90933 2.51813 0.0699482 8.26943 0.0699482 14.5026C0.0699482 23.4715 6.59845 30 15.5518 30C21.9249 30 27.2254 26.5648 29.6503 21.0155C29.8679 20.5337 29.9301 20.114 29.9301 19.8497C29.9301 19.0415 29.3394 18.5285 28.671 18.5285C28.329 18.5285 28.0026 18.6062 27.5363 18.8083C26.4482 19.2746 24.7383 19.5699 23.0751 19.5699ZM3.20984 14.4249C3.20984 10.4767 5.15285 6.60622 8.33938 4.36788C7.98187 5.4715 7.79534 6.68394 7.79534 8.00518C7.79534 16.9896 13.3446 22.4145 22.5155 22.4145C23.6347 22.4145 24.614 22.2902 25.5311 21.9637C23.4326 25.0415 19.671 26.8756 15.6295 26.8756C8.46373 26.8756 3.20984 21.6218 3.20984 14.4249Z" fill="#000000" fill-rule="nonzero" opacity="1" stroke="none"/>
</g>
<g id="globe">
<path d="M15.0076 30C23.2199 30 30 23.2199 30 14.9924C30 6.78009 23.2047 0 14.9924 0C6.78009 0 0 6.78009 0 14.9924C0 23.2199 6.78009 30 15.0076 30ZM6.29253 6.09446C7.72473 4.69274 9.47689 3.64144 11.4119 3.04723C10.3911 4.06805 9.50736 5.51549 8.85221 7.29812C7.86186 6.97816 6.9934 6.58202 6.29253 6.09446ZM18.5881 3.04723C20.5383 3.64144 22.2905 4.70797 23.7075 6.09446C23.0066 6.58202 22.1534 6.97816 21.1478 7.29812C20.4926 5.53073 19.6242 4.06805 18.5881 3.04723ZM10.9243 7.80091C11.7014 5.7288 12.7831 4.18994 13.9563 3.61097L13.9563 8.12087C12.8898 8.07517 11.869 7.96851 10.9243 7.80091ZM16.0437 3.61097C17.2169 4.18994 18.2986 5.7288 19.0757 7.80091C18.131 7.96851 17.1254 8.07517 16.0437 8.12087L16.0437 3.61097ZM2.55967 13.9563C2.75775 11.61 3.62621 9.44642 4.95175 7.63332C5.80498 8.28847 6.93245 8.83697 8.258 9.24835C7.90757 10.6958 7.67902 12.2651 7.60284 13.9563L2.55967 13.9563ZM22.3972 13.9563C22.321 12.2651 22.1077 10.6958 21.742 9.24835C23.0675 8.83697 24.195 8.28847 25.0482 7.64855C26.389 9.44642 27.2423 11.61 27.4403 13.9563L22.3972 13.9563ZM16.0437 13.9563L16.0437 10.193C17.3235 10.1473 18.5424 10.0102 19.6851 9.78162C19.9898 11.0615 20.2031 12.4784 20.2793 13.9563L16.0437 13.9563ZM9.73591 13.9563C9.79685 12.4784 10.0102 11.0615 10.3301 9.78162C11.4576 10.0102 12.6917 10.1473 13.9563 10.193L13.9563 13.9563L9.73591 13.9563ZM2.55967 16.0284L7.60284 16.0284C7.67902 17.7349 7.90757 19.3499 8.27324 20.7974C6.96293 21.2087 5.83545 21.7572 4.98222 22.3972C3.64144 20.5688 2.75775 18.39 2.55967 16.0284ZM9.72067 16.0284L13.9563 16.0284L13.9563 19.8527C12.6917 19.9137 11.4728 20.0508 10.3454 20.2793C10.0102 18.969 9.79685 17.5216 9.72067 16.0284ZM16.0437 19.8527L16.0437 16.0284L20.2793 16.0284C20.2184 17.5216 19.9898 18.9538 19.6699 20.2793C18.5272 20.0508 17.3083 19.9137 16.0437 19.8527ZM21.742 20.7974C22.1077 19.3499 22.3362 17.7349 22.3972 16.0284L27.4403 16.0284C27.2423 18.39 26.3738 20.5688 25.0178 22.3972C24.1646 21.7572 23.0523 21.2087 21.742 20.7974ZM10.9548 22.2448C11.8842 22.0772 12.8898 21.9858 13.9563 21.9401L13.9563 26.389C12.7984 25.8101 11.7318 24.2864 10.9548 22.2448ZM16.0437 21.9401C17.1102 21.9858 18.1158 22.0772 19.0604 22.2448C18.2834 24.2864 17.2169 25.8101 16.0437 26.389L16.0437 21.9401ZM6.33824 23.936C7.02387 23.4637 7.87709 23.0675 8.86745 22.7476C9.5226 24.4997 10.3911 25.9319 11.3966 26.9375C9.47689 26.3433 7.75521 25.3073 6.33824 23.936ZM21.1326 22.7476C22.1229 23.0675 22.9761 23.4637 23.677 23.936C22.26 25.3073 20.5231 26.3433 18.6034 26.9375C19.6242 25.9319 20.4926 24.4997 21.1326 22.7476Z" fill="#000000" fill-rule="nonzero" opacity="1" stroke="none"/>
</g>
</svg>
