<?xml version="1.0" encoding="UTF-8" standalone="no"?>
<!DOCTYPE svg PUBLIC "-//W3C//DTD SVG 1.1//EN" "http://www.w3.org/Graphics/SVG/1.1/DTD/svg11.dtd">
<!-- Created with Vectornator (http://vectornator.io/) -->
<svg height="100%" stroke-miterlimit="10" style="fill-rule:nonzero;clip-rule:evenodd;stroke-linecap:round;stroke-linejoin:round;" version="1.1" viewBox="0 0 30 30" width="100%" xml:space="preserve" xmlns="http://www.w3.org/2000/svg" xmlns:xlink="http://www.w3.org/1999/xlink">
<defs/>
<g id="house">
<path d="M6.07327 28.5574L23.9267 28.5574C25.6177 28.5574 26.5336 27.6274 26.5336 25.9647L26.5336 12.3526L28.7318 14.1986C28.9009 14.3395 29.07 14.4522 29.3095 14.4522C29.7041 14.4522 30 14.1986 30 13.8181C30 13.5645 29.9155 13.3954 29.7182 13.2263L26.5336 10.549L26.5336 4.99706C26.5336 4.58842 26.2518 4.3066 25.8431 4.3066L24.7017 4.3066C24.2931 4.3066 23.9972 4.58842 23.9972 4.99706L23.9972 8.40712L16.3598 1.98156C15.5284 1.26292 14.542 1.26292 13.6966 1.98156L0.295914 13.2263C0.0845467 13.3954 0 13.5926 0 13.804C0 14.1422 0.267731 14.4522 0.704556 14.4522C0.930014 14.4522 1.09911 14.3395 1.2682 14.1986L3.45233 12.3667L3.45233 25.9647C3.45233 27.6415 4.38234 28.5574 6.07327 28.5574ZM18.713 17.7918C18.713 17.2704 18.3748 16.9322 17.8675 16.9322L12.1465 16.9322C11.6252 16.9322 11.287 17.2704 11.287 17.7918L11.287 27.2047L6.3551 27.2047C5.29826 27.2047 4.80507 26.7115 4.80507 25.6547L4.80507 11.2394L14.4716 3.12295C14.8098 2.82703 15.1902 2.78476 15.5848 3.12295L25.1949 11.2253L25.1949 25.6547C25.1949 26.7115 24.7017 27.2047 23.6449 27.2047L18.713 27.2047L18.713 17.7918Z" fill="#000000" fill-rule="nonzero" opacity="1" stroke="none"/>
</g>
</svg>
