<?xml version="1.0" encoding="UTF-8" standalone="no"?>
<!DOCTYPE svg PUBLIC "-//W3C//DTD SVG 1.1//EN" "http://www.w3.org/Graphics/SVG/1.1/DTD/svg11.dtd">
<!-- Created with Vectornator (http://vectornator.io/) -->
<svg height="100%" stroke-miterlimit="10" style="fill-rule:nonzero;clip-rule:evenodd;stroke-linecap:round;stroke-linejoin:round;" version="1.1" viewBox="-0.05 -0.05 30.1 30.1" width="100%" xml:space="preserve" xmlns="http://www.w3.org/2000/svg" xmlns:xlink="http://www.w3.org/1999/xlink">
<defs/>
<g id="info.circle">
<path d="M15 30C23.2644 30 30 23.2644 30 15C30 6.73558 23.2644 0 15 0C6.73558 0 0 6.73558 0 15C0 23.2644 6.73558 30 15 30ZM15 27.2682C8.2221 27.2682 2.73182 21.7779 2.73182 15C2.73182 8.2221 8.2221 2.73182 15 2.73182C21.7779 2.73182 27.2682 8.2221 27.2682 15C27.2682 21.7779 21.7779 27.2682 15 27.2682ZM15.0999 10.0033C16.5451 10.0033 17.7383 8.77657 17.7383 7.38176C17.7383 5.86931 16.5451 4.69296 15.0999 4.69296C13.6715 4.69296 12.4615 5.86931 12.4615 7.38176C12.4615 8.77657 13.6715 10.0033 15.0999 10.0033ZM12.9929 24.1897L18.2515 24.1897C19.2476 24.1897 19.8444 23.4759 19.8444 22.43C19.8444 21.4671 19.2476 20.7035 18.2515 20.7035L17.4713 20.7035L17.4713 13.9722C17.4713 12.5777 16.774 11.6979 15.4625 11.6979L13.3083 11.6979C12.3123 11.6979 11.5154 12.4615 11.5154 13.4244C11.5154 14.4702 12.3123 15.1841 13.3083 15.1841L14.5202 15.1841L14.5202 20.7035L12.9929 20.7035C11.9802 20.7035 11.2 21.4671 11.2 22.43C11.2 23.4759 11.9802 24.1897 12.9929 24.1897Z" fill="#000000" fill-rule="nonzero" opacity="1" stroke="#000000" stroke-linecap="butt" stroke-linejoin="miter" stroke-width="0.1"/>
</g>
</svg>
