<?xml version="1.0" encoding="UTF-8" standalone="no"?>
<!DOCTYPE svg PUBLIC "-//W3C//DTD SVG 1.1//EN" "http://www.w3.org/Graphics/SVG/1.1/DTD/svg11.dtd">
<!-- Created with Vectornator (http://vectornator.io/) -->
<svg height="100%" stroke-miterlimit="10" style="fill-rule:nonzero;clip-rule:evenodd;stroke-linecap:round;stroke-linejoin:round;" version="1.1" viewBox="0 0 30 30" width="100%" xml:space="preserve" xmlns="http://www.w3.org/2000/svg" xmlns:xlink="http://www.w3.org/1999/xlink">
<defs/>
<g id="person">
<path d="M15.0176 14.8858C18.8489 14.8858 21.8717 11.5641 21.8717 7.34622C21.8717 3.28647 18.7961 1.9984e-15 15.0176 1.9984e-15C11.2566 1.9984e-15 8.14587 3.32162 8.18102 7.3638C8.19859 11.5641 11.2039 14.8858 15.0176 14.8858ZM15.0176 13.2865C12.1529 13.2865 9.85062 10.7206 9.85062 7.3638C9.83304 4.18278 12.1705 1.5993 15.0176 1.5993C17.8647 1.5993 20.2021 4.14763 20.2021 7.34622C20.2021 10.703 17.8998 13.2865 15.0176 13.2865ZM4.12127 30L25.8787 30C28.1107 30 29.1652 29.2619 29.1652 27.6626C29.1652 23.3568 23.7522 17.2759 15 17.2759C6.2478 17.2759 0.834798 23.3568 0.834798 27.6626C0.834798 29.2619 1.88928 30 4.12127 30ZM3.7522 28.4007C2.82074 28.4007 2.50439 28.1722 2.50439 27.522C2.50439 24.1301 7.07381 18.8752 15 18.8752C22.9086 18.8752 27.4956 24.1301 27.4956 27.522C27.4956 28.1722 27.1793 28.4007 26.2302 28.4007L3.7522 28.4007Z" fill="#000000" fill-rule="nonzero" opacity="1" stroke="none"/>
</g>
</svg>
