<?xml version="1.0" encoding="UTF-8" standalone="no"?>
<!DOCTYPE svg PUBLIC "-//W3C//DTD SVG 1.1//EN" "http://www.w3.org/Graphics/SVG/1.1/DTD/svg11.dtd">
<!-- Created with Vectornator (http://vectornator.io/) -->
<svg height="100%" stroke-miterlimit="10" style="fill-rule:nonzero;clip-rule:evenodd;stroke-linecap:round;stroke-linejoin:round;" version="1.1" viewBox="0 0 30 30" width="100%" xml:space="preserve" xmlns="http://www.w3.org/2000/svg" xmlns:xlink="http://www.w3.org/1999/xlink">
<defs/>
<g id="person.crop.circle">
<path d="M15.008 30C23.2248 30 30 23.2248 30 15.008C30 6.77523 23.2248 0 14.992 0C6.75921 0 1.77636e-15 6.77523 1.77636e-15 15.008C1.77636e-15 23.2248 6.77523 30 15.008 30ZM15.008 20.0374C10.1228 20.0374 6.45489 22.1356 5.12547 24.0897C2.93113 21.7032 1.58569 18.5158 1.58569 15.008C1.58569 7.5921 7.57608 1.58569 14.992 1.58569C22.4079 1.58569 28.4143 7.5921 28.4143 15.008C28.4143 18.5158 27.0689 21.7032 24.8745 24.1057C23.5611 22.1196 19.8932 20.0374 15.008 20.0374ZM15.008 17.4426C17.9071 17.4586 20.1335 14.976 20.1335 11.7565C20.1335 8.72931 17.859 6.18259 15.008 6.18259C12.141 6.18259 9.85051 8.72931 9.86652 11.7565C9.86652 14.976 12.0929 17.4266 15.008 17.4426Z" fill="#000000" fill-rule="nonzero" opacity="1" stroke="none"/>
</g>
</svg>
