<?xml version="1.0" encoding="UTF-8" standalone="no"?>
<!DOCTYPE svg PUBLIC "-//W3C//DTD SVG 1.1//EN" "http://www.w3.org/Graphics/SVG/1.1/DTD/svg11.dtd">
<!-- Created with Vectornator (http://vectornator.io/) -->
<svg height="100%" stroke-miterlimit="10" style="fill-rule:nonzero;clip-rule:evenodd;stroke-linecap:round;stroke-linejoin:round;" version="1.1" viewBox="0 0 30 30" width="100%" xml:space="preserve" xmlns="http://www.w3.org/2000/svg" xmlns:xlink="http://www.w3.org/1999/xlink">
<defs/>
<g id="rectangle.3.group">
<path d="M1.94805 14.4746L12.7863 14.4746C14.0732 14.4746 14.7344 13.8607 14.7344 12.5266L14.7344 7.24911C14.7344 5.91499 14.0732 5.31287 12.7863 5.31287L1.94805 5.31287C0.661157 5.31287 0 5.91499 0 7.24911L0 12.5266C0 13.8607 0.661157 14.4746 1.94805 14.4746ZM2.01889 13.4002C1.36954 13.4002 1.07438 13.1051 1.07438 12.4321L1.07438 7.34357C1.07438 6.6706 1.36954 6.37544 2.01889 6.37544L12.7037 6.37544C13.3648 6.37544 13.66 6.6706 13.66 7.34357L13.66 12.4321C13.66 13.1051 13.3648 13.4002 12.7037 13.4002L2.01889 13.4002ZM20.1889 23.4947L28.0401 23.4947C29.327 23.4947 30 22.8808 30 21.5466L30 8.63046C30 7.29634 29.327 6.68241 28.0401 6.68241L20.1889 6.68241C18.902 6.68241 18.229 7.29634 18.229 8.63046L18.229 21.5466C18.229 22.8808 18.902 23.4947 20.1889 23.4947ZM20.2597 22.4203C19.6104 22.4203 19.3034 22.1133 19.3034 21.4522L19.3034 8.72491C19.3034 8.05195 19.6104 7.75679 20.2597 7.75679L27.9575 7.75679C28.6187 7.75679 28.9256 8.05195 28.9256 8.72491L28.9256 21.4522C28.9256 22.1133 28.6187 22.4203 27.9575 22.4203L20.2597 22.4203ZM4.79339 24.6871L14.1795 24.6871C15.4782 24.6871 16.1393 24.0732 16.1393 22.7391L16.1393 18.902C16.1393 17.5797 15.4782 16.9658 14.1795 16.9658L4.79339 16.9658C3.50649 16.9658 2.83353 17.5797 2.83353 18.902L2.83353 22.7391C2.83353 24.0732 3.50649 24.6871 4.79339 24.6871ZM4.86423 23.6128C4.21488 23.6128 3.90791 23.3176 3.90791 22.6446L3.90791 19.0083C3.90791 18.3353 4.21488 18.0401 4.86423 18.0401L14.1086 18.0401C14.7698 18.0401 15.0649 18.3353 15.0649 19.0083L15.0649 22.6446C15.0649 23.3176 14.7698 23.6128 14.1086 23.6128L4.86423 23.6128Z" fill="#000000" fill-rule="nonzero" opacity="1" stroke="none"/>
</g>
</svg>
